<svg fill="none" height="370" viewBox="0 0 372 370" width="372" xmlns="http://www.w3.org/2000/svg"><path d="m103.78 226.993h-81.0258c-.0835 0-.0835 0-.0835-.083v-5.26s0-.083.0835-.083h81.0258s.084 0 .084.083l-.084 5.343c.084 0 .084-.083 0 0z" fill="#231f20"/><path d="m74.7948 229.414h-51.2053c-.5012 0-.9188-.417-.9188-.918v-3.924h52.1241c.3341 0 .5847.25.5847.584v3.674c0 .334-.2506.584-.5847.584z" fill="#0c0a0a"/><path d="m72.2052 257.297-43.6874-29.386s0 0 0-.083l1.7542-2.505h.0835l43.6874 29.386v.084z" fill="#0c0a0a"/><path d="m23.3389 122.973c-6.6825 0-12.0286 5.426-12.0286 12.021v8.015 4.174 62.278c0 1.253.2506 2.421.5847 3.59 2.1719 2.171 5.179 3.59 8.6039 3.59h79.3556c1.5035 0 2.6735-1.169 2.6735-2.671v-66.787-4.174-20.036z" fill="#a2a7b7"/><path d="m102.36 147.183h-91.1333v3.339h91.1333z" fill="#a2a7b7"/><path d="m104.532 123.807c-.501-.5-1.169-.751-1.921-.751h-.251v24.21 3.34 63.447c0 1.503-1.169 2.671-2.6727 2.671h-79.3556c-3.3413 0-6.432-1.419-8.6038-3.589 0 .167.0835.25.1671.334.0835.25.167.417.2506.668.0835.166.167.25.167.417.0836.167.1671.334.2506.501.0836.167.1671.25.2506.417.0836.167.1671.334.3342.501.0835.167.167.251.2505.418.1671.167.2506.417.4177.584.0835.083.1671.167.1671.25.2506.251.4176.501.6682.752.0836.083.1671.167.2506.25.1671.167.3342.334.5012.418.0836.083.2506.167.3342.25.167.167.3341.25.5011.417.0836.084.2506.167.3342.251.167.167.4176.25.6682.417.0836.084.1671.084.2506.167.3342.167.6683.334.9189.501.0835 0 .167.084.2506.084.2506.083.5012.167.7518.25.0835 0 .2506.084.3341.084.2506.083.5012.167.6683.167.167 0 .2506.083.4176.083.2506.084.5012.084.7518.084.0835 0 .2506 0 .3341.083.3342 0 .7518.084 1.1695.084h79.3557c.752 0 1.42-.334 1.921-.752.501-.501.752-1.169.752-1.92v-68.373-3.339-21.539c.25-.751-.084-1.419-.585-1.837z" fill="#8d93a0"/><path d="m183.971 224.572h-68.162c-1.671 0-3.258-1.753-3.926-4.592-1.086-5.176-2.088-10.435-3.174-15.611-.084-1.252-.334-4.091.585-6.512.25-.751 1.002-3.339 3.007-3.423 6.098-.333 12.53-.25 19.463.418 10.191 1.002 19.546 3.172 27.983 5.844 2.506.835 4.511.751 5.931.668 3.926-.418 8.437-2.672 11.945-4.342 2.339-1.168 3.926-2.087 5.513-.584 1.42 1.252 2.172 3.757 2.59 5.51l2.589 10.769c1.337 5.51-.919 11.855-4.344 11.855z" fill="#231f20"/><path d="m188.232 212.55-2.59-10.769c-.418-1.753-1.169-4.174-2.59-5.51-1.503-1.336-2.923-.668-5.011.334.167.501.25 1.002.334 1.419l2.589 10.77c1.337 5.677-.835 12.021-4.26 12.021h-64.487c.835 2.254 2.172 3.757 3.676 3.757h68.162c3.341 0 5.597-6.345 4.177-12.022z" fill="#0c0a0a"/><path d="m22.42 242.771-9.4391 9.267c-1.1695 1.085-1.0859 2.671.167 3.757l6.8497 5.76 25.2267-20.203h-18.8783c-1.5035 0-2.9236.501-3.926 1.419z" fill="#d8a925"/><path d="m24.0907 241.853-9.4392 9.267c-1.1694 1.085-1.0859 2.671.1671 3.757l6.8496 5.76 25.2268-20.203h-18.9619c-1.5035-.084-2.9236.501-3.8424 1.419z" fill="#ffc607"/><path d="m26.012 240.017c-.4177.417-.6683.918-.9189 1.502-1.6706 3.673-2.9236 7.347-4.1766 11.187-1.0859 3.339-2.0883 6.762-2.2554 10.268 0 .167 6.5991-1.836 7.1838-2.087 2.2554-1.001 3.6754-2.588 5.5131-4.257 4.4272-3.924 8.8544-7.931 13.3652-11.855 2.506-2.254 5.0119-4.508 7.5179-6.679 0 0-21.7184 0-21.8019 0-1.7542-.083-3.3413.668-4.4272 1.921z" fill="#d1d3d4"/><path d="m70.1169 266.898c-28.4845 0-51.5394 23.041-51.5394 51.509s23.0549 51.509 51.5394 51.509 51.5391-23.041 51.5391-51.509c.084-28.384-23.0546-51.509-51.5391-51.509zm0 85.988c-19.0453 0-34.4153-15.445-34.4153-34.395 0-19.035 15.4535-34.395 34.4153-34.395s34.4151 15.444 34.4151 34.395c.084 19.034-15.3697 34.395-34.4151 34.395z" fill="#0c0a0a"/><path d="m70.117 284.012c-19.0454 0-34.4153 15.445-34.4153 34.395 0 19.035 15.4534 34.395 34.4153 34.395 18.9618 0 34.415-15.444 34.415-34.395.084-18.95-15.3697-34.395-34.415-34.395zm23.4725 21.038-12.6134 4.508c-1.6706-2.003-3.8424-3.506-6.3484-4.341v-13.274c8.1026 1.252 14.9523 6.261 18.9618 13.107zm-27.8998-13.19v13.274c-2.5059.834-4.6778 2.337-6.2649 4.257l-12.6134-4.508c3.9261-6.762 10.7757-11.688 18.8783-13.023zm-22.5537 26.631c0-1.753.1671-3.423.5012-5.093l12.4463 4.425v.668c0 2.922.9189 5.677 2.4225 7.931l-7.8521 10.853c-4.5942-4.926-7.5179-11.521-7.5179-18.784zm14.7852 24.043 7.7685-10.769c1.4201.501 2.9237.751 4.4273.751 1.5871 0 3.0906-.25 4.5107-.751l7.7685 10.769c-3.6754 1.92-7.852 2.922-12.2792 2.922-4.3437 0-8.5203-1.085-12.1958-2.922zm31.7423-5.426-7.852-10.853c1.5035-2.254 2.4224-4.926 2.4224-7.848 0-.167 0-.417 0-.584l12.5298-4.425c.3342 1.67.5012 3.34.5012 5.009-.0835 7.263-3.0071 13.859-7.6014 18.701z" fill="#d1d3d4"/><path d="m260.737 136.163-7.434-24.043c-.167-.501-.585-.751-1.086-.751h-1.67c0-.919-.084-1.921-.167-2.839-1.003-6.512-5.681-13.0233-8.354-12.439-2.756.6679-3.425 8.599-2.589 14.276.835 5.426 3.675 12.606 6.515 12.439 1.922-.084 3.759-3.841 4.428-8.265h.083c.334 0 .668.25.752.584l6.766 22.541c.083.25.083.501.083.668v11.771l2.841-.501v-12.523c0-.334-.084-.584-.168-.918z" fill="#d1d3d4"/><path d="m255.893 210.63-25.227-51.759c-1.838-3.757 0-8.265 3.842-9.684l8.771-3.256c1.337-.501 2.673-1.253 3.843-2.171l7.1-5.677c1.086-.835 2.422-1.335 3.759-1.335h9.105c2.088 0 3.842 1.669 3.842 3.84v21.789c0 2.087-1.67 3.84-3.842 3.84h-3.843c-.918 0-1.754.251-2.589.668l-3.425 2.004c-1.42.834-1.921 2.588-1.086 4.09l5.43 9.684 6.014 38.319-8.854-6.177c-.836-.585-1.587-1.42-2.005-2.422z" fill="#e9733a"/><path d="m234.508 149.103c-3.926 1.503-5.68 5.927-3.842 9.684l25.227 51.76.751 1.67c.418.918 1.086 1.753 2.005 2.421l8.855 6.177-6.015-38.318-5.429-9.685c-.752-1.419-.334-3.255 1.086-4.09l3.424-2.004c.752-.417 1.671-.668 2.59-.668h3.842c2.089 0 3.843-1.669 3.843-3.84v-5.76c-3.759.25-7.602.25-11.193-.418-3.091-.584-6.015-1.669-8.604-3.506-2.673-1.92-4.762-4.592-6.599-7.347-.418.167-.836.418-1.253.585z" fill="#d54f41"/><path d="m270.928 162.293c0 1.169-.584 2.254-1.42 2.922 6.683-1.001 11.778-6.762 11.778-13.691 0-6.846-4.928-12.522-11.527-13.608.668.668 1.086 1.586 1.086 2.672v21.705z" fill="#ffc607"/><path d="m269.174 165.382c.668 0 1.337-.083 2.005-.167.835-.668 1.42-1.753 1.42-2.922v-21.789c0-1.002-.418-1.92-1.086-2.671-.752-.167-1.587-.251-2.339-.251z" fill="#d1d3d4"/><path d="m256.31 173.313c-.668.919-.835 2.171-.25 3.256l5.429 9.684 5.346 34.145.669.417-6.015-38.319z" fill="#e9733a"/><path d="m264.998 215.723c-1.504.334-3.091.083-4.511-.668l-8.353-4.842c-2.84-1.67-6.015-4.425-7.184 3.172l-8.52 41.074c-1.17 5.51.584 11.187 4.677 14.944l11.11 10.352 3.592 3.589 17.458-38.819-4.093-29.804z" fill="#231f20"/><path d="m255.893 278.586-3.592-3.59-11.11-10.352c-2.673-2.421-4.344-5.677-4.845-9.183-.752 5.176 1.003 10.435 4.845 14.025l11.11 10.352 3.592 3.59 17.458-38.82-.501-3.673z" fill="#0c0a0a"/><path d="m278.948 263.559-36.504 37.317-49.117 2.421-90.298 2.087v15.361c0 7.764 7.434 14.025 16.623 14.025h11.945c8.938 0 17.708-1.92 25.477-5.593l25.978-12.106h.335 52.541c11.611 0 22.471-6.094 28.401-16.112l22.554-37.484h-7.935z" fill="#30211f"/><path d="m282.874 263.559-21.051 34.979c-6.014 10.018-16.79 16.112-28.401 16.112h-52.541c-.084 0-.167 0-.334 0l-25.979 12.105c-7.768 3.674-16.539 5.594-25.477 5.594h-11.862c-4.427 0-8.437-1.503-11.444-3.84 3.007 3.84 8.103 6.344 13.95 6.344h11.945c8.938 0 17.709-1.92 25.478-5.593l25.978-12.105h.334 52.542c11.611 0 22.47-6.094 28.401-16.112l22.554-37.484z" fill="#0c0a0a"/><path d="m319.795 266.898c-28.485 0-51.54 23.041-51.54 51.509s23.055 51.509 51.54 51.509c28.484 0 51.539-23.041 51.539-51.509 0-28.384-23.055-51.509-51.539-51.509zm0 85.988c-19.046 0-34.416-15.445-34.416-34.395 0-19.035 15.454-34.395 34.416-34.395 19.045 0 34.415 15.444 34.415 34.395 0 19.034-15.37 34.395-34.415 34.395z" fill="#30211f"/><path d="m319.795 284.012c-19.046 0-34.416 15.445-34.416 34.395 0 19.035 15.454 34.395 34.416 34.395 19.045 0 34.415-15.444 34.415-34.395 0-18.95-15.37-34.395-34.415-34.395zm23.389 21.038-12.614 4.508c-1.67-2.003-3.842-3.506-6.348-4.341v-13.274c8.186 1.252 15.036 6.261 18.962 13.107zm-27.9-13.19v13.274c-2.506.834-4.678 2.337-6.265 4.257l-12.613-4.508c3.926-6.762 10.775-11.688 18.878-13.023zm-22.47 26.631c0-1.753.167-3.423.501-5.093l12.446 4.425v.668c0 2.922.919 5.677 2.423 7.931l-7.852 10.853c-4.678-4.926-7.518-11.521-7.518-18.784zm14.785 24.043 7.769-10.769c1.42.501 2.923.751 4.427.751 1.587 0 3.09-.25 4.51-.751l7.769 10.769c-3.675 1.92-7.852 2.922-12.279 2.922s-8.521-1.085-12.196-2.922zm31.659-5.426-7.852-10.853c1.503-2.254 2.422-4.926 2.422-7.848 0-.167 0-.417 0-.584l12.53-4.425c.334 1.67.501 3.34.501 5.009-.083 7.263-2.923 13.859-7.601 18.701z" fill="#d1d3d4"/><path d="m368.076 285.431c1.17-.834 1.42-2.421.585-3.589-11.444-15.946-30.072-26.298-51.122-26.298-33.83 0-61.479 26.715-62.816 60.275-.083 1.42 1.086 2.588 2.506 2.588h10.692c1.42 0 2.924-.417 4.177-1.168l28.401-16.781c6.265-3.673 13.365-5.593 20.549-5.593h30.907c1.754 0 3.508-.584 5.012-1.586z" fill="#e9733a"/><path d="m329.485 261.889c6.599.835 13.031 2.672 18.878 5.844 2.756 1.503 5.262 3.423 7.601 5.51s4.177 4.675 6.349 6.846c-6.265-6.095-14.117-11.02-22.303-14.193-4.344-1.669-9.022-2.838-13.616-3.339-3.759-.417-9.69-1.252-13.282.167 4.929-2.004 11.194-1.419 16.373-.835z" fill="#f38564"/><path d="m270.928 315.903c1.253-30.805 24.726-55.85 54.798-59.691-2.674-.334-5.347-.501-8.103-.501-33.831 0-61.48 26.715-62.816 60.275-.084 1.42 1.086 2.588 2.506 2.588h10.692c1.253 0 2.506-.334 3.675-.834-.585-.585-.835-1.253-.752-1.837z" fill="#d54f41"/><path d="m237.766 308.64c-1.838.334-3.675.501-5.596.501-11.946 0-23.974 0-35.919 0-38.843 0-77.769 0-116.6113 0-24.8926 0-49.7852 0-74.76135 0-.16706 0-.33413 0-.50119 0-4.84487 0-3.34129-4.759-2.75657-7.931 1.16945-6.345 2.8401-11.604 3.75895-14.693 4.59427-15.194 12.94746-31.557 24.47496-42.493 11.778-11.187 28.7351-19.118 45.4415-19.285h109.093c-20.549 10.686-32.41 26.882-33.747 40.406-1.504 14.693 7.1 23.542 20.883 26.798 12.279 2.922 24.976 2.254 37.423 2.421 6.264.084 12.529-.083 18.878-.584 6.766-.501 13.866-1.336 19.379-5.343 11.11-8.015 17.124-26.297 18.795-39.154 1.921-14.776-.585-29.803-4.761-44.163-1.42-4.842-3.007-9.6-3.342-14.609-.167-2.672-.334-7.597 1.421-9.768 1.67-2.17 2.505-.417 3.926 1.419 8.186 10.269 16.038 20.788 24.224 31.14 3.592 4.508 7.685 8.682 11.11 13.357 4.343 5.927 11.026 15.445 7.685 22.958-1.671 3.84-4.845 6.679-7.936 9.517-2.339 2.171-4.761 4.341-7.1 6.512-1.921 1.753-3.843 3.59-6.432 4.174-2.506.584-4.511.083-6.85 1.586-3.675 2.338-5.179 6.846-7.685 10.269-3.675 5.092-7.184 10.185-11.444 14.86-5.847 5.844-12.697 10.686-21.05 12.105z" fill="#ee9769"/><path d="m259.902 207.541c4.177 14.276 6.683 29.387 4.762 44.163-.919 6.846-3.008 15.111-6.432 22.624 4.176-8.181 6.766-17.698 7.768-25.295 1.921-14.777-.585-29.804-4.761-44.163-1.42-4.842-3.007-9.601-3.342-14.61-.167-3.005.167-6.177 1.253-9.016l-.083.084c-2.005 3.422-2.673 7.597-2.423 11.604.251 5.009 1.838 9.851 3.258 14.609z" fill="#e9733a"/><path d="m147.468 264.978c-1.504 14.693 7.1 23.542 20.883 26.798 10.107 2.421 20.465 2.421 30.74 2.338-9.272 0-18.461-.251-27.566-2.338-13.699-3.256-22.303-12.105-20.883-26.798 1.42-13.524 13.198-29.72 33.747-40.406h-3.174c-20.549 10.686-32.411 26.882-33.747 40.406z" fill="#d54f41"/><path d="m269.843 228.412h4.093c1.503 0 2.84 1.085 3.257 2.755l.502 1.92c.167.585.25 1.252.167 1.92l-.836 9.35c-.167 1.837-1.503 3.256-3.09 3.256h-4.093c-.836 0-1.588-.835-1.588-1.836v-15.528c0-1.086.669-1.837 1.588-1.837z" fill="#ffc607"/><path d="m277.026 243.105c-.167 1.837-1.503 3.256-3.09 3.256h-4.093c-.836 0-1.588-.835-1.588-1.836v1.252c0 1.002.669 1.836 1.588 1.836h4.093c1.587 0 2.923-1.419 3.09-3.255l.836-9.351c0-.334 0-.667 0-1.001z" fill="#d8a925"/><path d="m146.883 280.673c-3.258-28.301-23.055-51.509-51.5393-51.509-40.4297 0-76.5991 40.99-78.7709 63.03v.5c0 2.171 1.7541 3.924 3.926 3.924h114.4392c5.262 0 10.024-3.339 11.444-8.432.585-2.003.835-4.508.501-7.513z" fill="#d54f41"/><path d="m145.129 284.847c-3.258-28.301-23.055-51.509-51.5395-51.509-40.4296 0-76.5991 40.99-78.7709 63.03v.501c0 2.17 1.7542 3.923 3.926 3.923h114.4394c5.262 0 10.024-3.339 11.444-8.431.501-2.004.835-4.508.501-7.514z" fill="#e9733a"/><path d="m27.0143 278.586h-3.3413c-1.1694 0-2.3389.751-3.0907 2.003l-.0835.167c.5012-.25.9188-.417 1.42-.417h3.2578c.5012 0 .8353.584.8353 1.252v8.181c0 1.002-.2506 1.837-.5847 2.588 1.3365-.5 2.3389-2.254 2.3389-4.341v-8.181c.0835-.751-.3342-1.252-.7518-1.252z" fill="#d01b20"/><path d="m19.6635 281.174-3.3413 5.426c-.6682 1.169-1.0859 2.588-1.0859 4.091 0 1.336.7518 2.337 1.6707 2.337h6.8496c1.7542 0 3.1742-2.003 3.1742-4.508v-8.181c0-.668-.4176-1.252-.8353-1.252h-3.2577c-1.253.083-2.4225.835-3.1743 2.087z" fill="#ffc607"/><path d="m18.5775 291.359c-.9188 0-1.6706-1.085-1.6706-2.338 0-1.502.4176-3.005 1.0859-4.09l3.2578-5.343c-.6683.334-1.1695.834-1.6707 1.586l-3.3413 5.426c-.6682 1.169-1.0859 2.588-1.0859 4.091 0 1.336.7518 2.338 1.6707 2.338h6.8496c1.0859 0 2.0048-.752 2.5895-1.921-.2506.084-.5847.167-.8353.167h-6.8497z" fill="#d8a925"/><path d="m93.5894 240.601c18.2936 0 33.0786 9.6 42.1006 24.043-7.268-17.114-22.22-29.303-41.6829-29.303-25.3938 0-48.9499 18.116-61.3126 35.731 14.7016-16.196 37.0047-30.471 60.8949-30.471z" fill="#f38564"/><path d="m180.212 226.909h-120.5366c-.8353.251-1.5871.501-2.3389.752h121.7065c.418-.334.752-.501 1.169-.752z" fill="#d01b20"/><g fill="#fce9c3"><path d="m276.525 233.338v.835c-.334-2.338-2.589-5.009-5.179-4.508.585-.084 1.17-.251 1.754-.251 1.003 0 2.757.751 3.091 1.753.251.668.334 1.419.334 2.171z"/><path d="m26.0119 283.595c0-.668-.0835-1.336-.2506-1.92-.1671-.668-.9189-1.253-1.5036-1.503-.7518-.334-1.3365-.167-2.0048-.251.9189.084 1.9213.752 2.5895 1.336.6683.585 1.1695 1.503 1.1695 2.338z"/><path d="m280.368 151.858c-.084-1.252-.502-2.338-.919-3.506-.585-1.67-1.17-3.34-2.423-4.508-1.086-1.002-1.921-2.338-3.425-2.505 1.755.251 3.509 1.336 4.678 3.006 1.587 1.92 1.838 4.925 2.089 7.513z"/></g><path d="m241.776 152.109-.084-6.011c0-.334-.083-.585-.167-.919l-7.685-23.959c-.167-.501-.585-.752-1.086-.752h-1.67c0-.918-.084-1.92-.251-2.838-1.002-6.512-5.764-13.023-8.52-12.356-2.757.668-3.342 8.599-2.423 14.276.919 5.343 3.843 12.606 6.599 12.356 1.922-.167 3.759-3.841 4.344-8.349h.083c.335 0 .669.251.752.585l7.017 22.457c0 .25.084.501.084.668l.083 4.758c0 .251.251.501.501.501h1.921c.251.083.502-.167.502-.417z" fill="#d1d3d4"/><path d="m238.267 159.538-12.864 9.768c-1.921 1.252-5.429 1.169-6.682-.751l-.084-.167c-1.67-2.505-.919-5.844 1.587-7.514l13.198-8.515c.084 0 .084-.084.167-.084 2.506-1.419 5.681 0 6.349 2.755v.167c.418 1.67-.251 3.423-1.671 4.341z" fill="#302826"/><path d="m192.325 275.58-2.339 11.187 8.603 4.759 7.685-2.755 2.005-13.191z" fill="#e5b1a1"/><path d="m191.573 281.675s-2.924-.251-3.258-4.258c-.167-2.337 1.002-4.174 1.17-6.512.501-12.439.584-25.128 2.589-37.484 1.253-7.764 2.673-15.277 6.516-22.54.417-.751.835-1.586.751-2.421-.083-.835-1.086-1.67-2.004-1.419-3.592.834-8.521.667-12.53.667-17.291 0-36.754 2.672-53.628-1.252-7.267-1.669-14.2-5.343-16.539-11.771-1.337-3.757-1.922-8.766-.669-12.522 7.101-.668 13.95-1.503 21.051-2.421 6.682-.919 13.448-.501 20.214-.084 11.528.668 22.972 1.586 34.499 1.586 10.442 0 21.468.668 30.74 5.343 9.69 4.842 8.604 13.691 7.017 22.04-1.086 6.011-16.874 70.543-17.626 70.961-.751.417-.835 2.755-3.174 2.087s-15.119 0-15.119 0z" fill="#3c4082"/><path d="m186.477 277.667-2.339 11.187 8.604 4.759 7.769-2.755 1.921-13.191z" fill="#fdbea6"/><path d="m186.561 281.925c-.752-.25-1.504-.584-2.255-1.002-.335-.167-.752-.334-.919-.751-.836-1.503.417-7.347.584-9.267.335-3.923.836-7.931 1.504-11.854 2.088-11.604-1.086-23.877.668-35.648.585-3.923 2.339-7.597 2.673-11.52 0-.167 0-.418 0-.585-.752-2.003-11.36 0-12.947.251-4.177.668-8.27 1.502-12.447 2.504-6.766 1.586-13.615 2.421-20.548 2.922-9.774.668-21.134-2.17-28.652-8.766-5.263-4.591-5.597-11.437-6.014-17.949-.084-1.753-1.086-13.106 2.088-13.106h47.279s1.086 3.172 6.015 3.84c17.541 2.254 35.167-1.085 51.121 6.929 9.69 4.842 8.604 13.775 7.017 22.123-1.086 6.094-16.874 70.877-17.625 71.295-.752.417-.836 2.755-3.175 2.087-5.596.25-9.606.25-14.367-1.503z" fill="#99bdf6"/><path d="m157.993 144.929c2.589 2.588 5.764 4.508 9.857 5.009 9.021 1.169 18.126 1.836 27.064 3.924 3.174.751 6.432 1.502 9.606 2.254 1.838.417 3.676.834 5.513 1.085 4.762.584 9.022 2.17 13.867 2.087.501 0 1.086-.083 1.42-.334 1.587-1.336 3.926-2.922 4.678-4.925.334-.835.584-1.503 1.002-2.088.084-.167.668-.834.835-1.085-1.754-.25-3.424-.083-5.095.084-2.84.334-5.68.334-8.52.25-2.506-.083-4.177-1.252-6.432-2.254-2.005-.918-4.01-1.92-6.015-2.755-6.682-2.504-13.114-5.259-19.546-8.348-4.344-2.171-8.855-4.258-13.699-4.926-.585-.083-1.17-.083-1.755-.334-1.921-.751-1.837-5.593-2.339-7.43-.334-1.335-1.587-5.009-2.923-5.51-.501-.167-1.086 0-1.587.167-4.26 1.42-8.103 4.258-11.945 6.512-1.17.668-3.258 2.338-3.425 3.84-.084.668.25 1.253.584 1.837 2.59 4.425 5.179 9.35 8.855 12.94z" fill="#e5b1a1"/><path d="m168.518 100.182c-.167-1.7533-.585-3.5065-1.086-5.1761-.835-2.6715-3.007-4.7586-5.095-6.6787-3.843-3.5898-7.602-7.764-11.862-10.8528-2.673-1.9202-6.933-6.0108-10.609-5.176-.334.0835-.584.2504-.751.5009-12.447 11.1033-20.549 27.5497-21.886 44.0787-.919 11.438-2.673 22.708-4.928 33.978-1.504 7.43-2.673 15.027-4.511 22.374-.501 1.92-2.005 5.009-1.42 6.929.083.417.418.751.752 1.085 11.444 11.855 35.501 4.341 49.868 3.173 2.674-.251 4.929-2.839 5.514-5.26 3.591-13.691 3.257-28.635 4.51-42.743.669-7.263 1.17-14.61 1.42-21.957.251-4.591.669-9.6.084-14.275z" fill="#9cf1ec"/><path d="m196.585 39.9068c.919-.167 1.921-.4175 2.589.1669.752.5844.836 1.6697.752 2.6715-.251 8.5988-1.336 17.8654-7.1 24.2102-1.587 1.7531-3.425 3.1723-5.43 4.2576-1.837 1.0018-3.842 1.6697-5.847 2.0871-1.002.167-2.005.3339-3.007.3339-1.253-.0834-2.506.0835-3.759-.0834-1.42-.167-2.757-.5844-4.093-1.0853-.919-.4174-2.005-.5009-2.924-.9183-.418-.167-1.253-.501-1.336-1.0019.25 1.8367.083 3.6733-.502 5.4265-.334.9183-.751 1.7531-.918 2.6714-.335 1.9202.25 9.0162-3.342 4.7586-3.174-3.6733-7.685-5.5934-11.694-8.1814-2.59-1.6696-4.511-2.1705-2.59-4.9255 1.754-2.588 4.427-4.0072 6.182-6.5952 0-.0835.083-.0835.083-.1669 1.754-2.755 2.84-5.9274 3.091-9.1832-.334.4174-1.002-.2505-1.086-.8348-.668-3.7568-3.926-12.6895 3.425-11.5208 1.838.2505 3.508 1.5027 4.594 3.0054-.167-4.675-.083-8.8492 5.931-8.4318 2.005.167 4.009.7514 5.931 1.4192 3.257 1.0853 6.599 2.922 10.107 3.5063 3.843.6679 7.184-.7513 10.943-1.5861z" fill="#f8c3a3"/><path d="m146.716 50.7597c-.084.5009-.251 1.0018-.585 1.3357-.083-3.6732-1.921-6.4282-2.673-9.9345-.752-3.2558-.417-6.0108.084-9.2666-.501.4174-.919 1.0018-1.003 1.6696 0-1.0852 0-2.1705.334-3.1723.669-2.588 3.091-4.1742 4.762-6.0108 2.756-3.0889 4.845-6.6787 6.265-10.6024.334.5844.584 1.2522.919 1.8366 3.759-2.421 8.353-3.0889 12.697-2.7549 4.427.3339 8.687 1.5027 12.947 2.7549-.418.167-.752.334-1.169.5009-.084 0 6.181 3.4228 7.016 3.5898 2.506.5844 5.263 1.2523 7.852 1.1688 2.757-.167 5.43-.5009 8.103-.7514 2.255-.2504 4.511.0835 6.766-.4174-.501.5009-1.169.9183-1.921 1.0853 2.589-.5009 4.093.0835 6.348-1.8366-2.339 8.0978-4.511 17.5315-12.53 22.0396-5.93 3.3393-12.947.7513-19.128-.5009-3.592-.7514-7.602-2.6715-11.11-2.9219-2.673-.2505-3.759 1.6696-4.177 4.0906-.25 1.5027-.835 2.588-1.503 3.9237-.836 1.5862-.585 2.3376-2.673 2.0871.334-1.0853.918-3.4228.167-4.4246-.836-1.2522-2.506-.2504-3.425.5009-.251.167-.585.4174-.752.6679-.418.6678-.334 1.5027-.334 2.254 0 1.4192-.251 2.421-.752 3.7568-.167.4174-.251.8348 0 1.1687.167.2505.501.334.835.334.334-.0835.585-.167.919-.334-.25.167-.334 1.5028-.417 1.8367-.251.9183-.669 1.7531-1.086 2.588-.585 1.1687-1.17 2.254-1.755 3.3393-.668 1.2522-1.42 2.5045-2.171 3.6733-.418.6678-.752 1.3357-1.42 1.7531-.251.167-1.17.3339-1.253.5009.334-.6679-.084-1.5862-.251-2.254-.418-3.1724-1.253-6.4283-2.59-9.3502-.668-1.3357-.835-2.6714-1.336-3.9237z" fill="#231f20"/><path d="m152.563 146.766c2.59 2.587 5.764 4.508 9.857 5.009 9.022 1.168 18.127 1.836 27.065 3.923 3.174.752 6.431 1.503 9.606 2.254 1.837.418 3.675.835 5.513 1.086 1.838.25 3.675.584 5.346 1.335 1.169.585 2.088 1.42 3.174 2.004.501.25 1.002.417 1.42.751.752.668 1.337 1.503 2.256 1.92.167.084.334.167.584.084.334-.084.334-.167.418-.501 1.253-3.506 6.181-4.091 9.021-2.004.585.501 1.17 1.002 1.671 1.587.251.333.585.667.835 1.001.251.585 0 .668-.334 1.086 0 0-.083.083-.083.167-.084.334.668.5.919.5.25-.083.584 0 .835-.083.25-.083.418-.25.585-.417.501-.501.668-1.086.584-1.754-.083-.584-.167-1.419-.417-1.92-.084-.25-.251-.417-.334-.668-.168-.25-.251-.5-.418-.667.083 0 .167 0 .25.083.418.334.919.751 1.17 1.169.251.417.251.751.251 1.169v.167s.083.083.167.083c.668.167 1.253.501 1.837 0 1.086-.835.669-2.755-.083-3.673-.167-.251-.501-.418-.669-.752 0 .167 1.003.585 1.086.752.251.334.502.751.585 1.336.084.5 1.504.166 1.921-.251.418-.334.418-.918.335-1.419-.168-.835-.752-1.503-1.253-2.171.501.668 1.42.835 1.42 1.92 0 .251 1.169.167 1.336-.417s-.083-1.419-.251-1.92c-.25-.585-.668-1.252-1.085-1.753-.418-.668-.919-1.253-1.588-1.67-2.004-1.336-4.844-2.004-7.183-1.92-1.17 0-2.423-.084-3.592-.084-1.253.084-2.506.418-3.759.585-2.924.334-4.678 1.002-7.518-.585-6.933-3.84-14.284-7.012-21.718-9.684-7.184-2.588-14.535-5.259-22.053-6.595-3.174-.584-5.764-2.671-6.432-6.011-.501-2.337-1.503-4.675-2.339-6.845-.25-.585-.585-1.336-1.169-1.503-.501-.167-1.086 0-1.587.167-4.26 1.419-8.103 4.258-11.945 6.512-1.17.668-3.258 2.337-3.425 3.84-.084.668.25 1.252.584 1.837 2.423 4.424 5.012 9.35 8.604 12.94z" fill="#fdbea6"/><path d="m157.241 76.0551-.083-.0834c-3.843-2.755-7.936-5.176-12.029-7.597-.501-.2505-1.003-.5844-1.504-.5844-.584 0-1.169.3339-1.67.7513-.919.6679-1.838 1.3358-2.757 2.0871-.418.334-.835.6679-1.002 1.1688-.334.5844-.167 1.4192.25 1.9201.501.7514 1.504 1.0853 2.339 1.3357 7.852 2.8385 14.201 8.7658 20.299 14.5261 3.174 3.0055 6.348 6.0109 9.522 8.9328 1.003-4.5916-.417-9.4337-2.923-13.3574-1.17-1.8366-3.008-3.2558-4.678-4.7585-1.921-1.5027-3.843-2.9219-5.764-4.3412z" fill="#00aea9"/><path d="m163.005 125.644c0 .084 0 .251-.084.334-.083.167-.334.334-.584.417-1.086.418-2.172.752-3.175 1.253-.417.167-.751.334-1.169.417-2.757.501-5.513 1.753-8.186 2.672-2.506.834-5.263 1.753-7.936 2.254-.167 0-.25.083-.417 0-.084-.084-.168-.167-.168-.251-3.007-7.179-5.012-14.192-6.348-21.956-.585-3.339-1.169-6.846-.668-10.185.835-6.5116 6.348-12.0215 13.198-9.684 3.425 1.1688 6.515 4.0907 7.935 7.4301 3.676 8.6819 5.681 17.7819 7.602 26.9649z" fill="#00aea9"/><path d="m167.349 64.7014c.668 3.2559 3.174 6.2613 5.93 7.8475.585.3339 1.253.5843 1.922.6678.334.0835.668.0835 1.002.167.418.0835.501.0835.919.0835.083.2504.083.3339.083.5844-.083.3339-.25.5843-.501.7513-.501.4174-1.169.5844-1.754.6679-2.59.1669-6.349-1.5027-8.186-3.3394-.585-.5843-4.594-5.5099-3.676-6.1777 1.253-.8349 2.757-1.2523 4.261-1.2523z" fill="#231f20"/><path d="m146.967 54.5998s-20.549-1.4192-21.385 13.0234c-.835 14.4426-9.105 25.7129-15.954 23.7093 0 0 2.756 3.4228 7.183 3.5898h6.015l12.613-15.6949 10.692-4.5916 5.597-5.8438 1.754-9.2667z" fill="#231f20"/><path d="m201.597 14.194c-.334-.5009-.669-.8349-1.003-1.2523-3.007-3.42281-6.849-6.42821-11.109-8.18136-3.425-1.41922-7.017-2.42102-10.693-3.17237-14.618-2.92192-32.327 3.92371-39.51 17.36453-6.516 12.1886-5.096 27.8 2.339 39.1537 3.508 5.3429 8.436 9.1832 14.367 11.2702 4.594 1.5862 11.862 4.2577 16.205.6679 1.17-1.0018 1.337-2.6715 1.17-4.1742-1.42-16.4462 6.014-36.8996 24.558-39.3206 1.838-.2505 3.759-.3339 5.43-1.2523.668-.3339 1.253-.9183 1.42-1.5861.919-2.8385-1.253-6.9292-3.174-9.5171z" fill="#ee9769"/><path d="m158.912 54.6835c3.783 0 6.849-3.0649 6.849-6.8457 0-3.7807-3.066-6.8456-6.849-6.8456s-6.85 3.0649-6.85 6.8456c0 3.7808 3.067 6.8457 6.85 6.8457z" fill="#231f20"/><path d="m158.912 51.3441c1.937 0 3.508-1.5698 3.508-3.5063 0-1.9364-1.571-3.5063-3.508-3.5063-1.938 0-3.509 1.5699-3.509 3.5063 0 1.9365 1.571 3.5063 3.509 3.5063z" fill="#d1d3d4"/><path d="m158.912 49.4238c.876 0 1.587-.7101 1.587-1.5861 0-.8761-.711-1.5862-1.587-1.5862-.877 0-1.587.7101-1.587 1.5862 0 .876.71 1.5861 1.587 1.5861z" fill="#30211f"/><path d="m166.597 96.6755s27.315 22.1235 1.086 33.3095z" fill="#9cf1ec"/></svg>