<svg xmlns="http://www.w3.org/2000/svg" width="153" height="95" viewBox="0 0 153 95">
  <g id="IAF-Logo" transform="translate(-606.315 -336.122)">
    <path id="Path_11846" data-name="Path 11846" d="M682.817,431.122c-18.456,0-36.085-3.787-49.633-10.668a56.76,56.76,0,0,1-18.165-13.925,34.5,34.5,0,0,1,0-45.814,56.8,56.8,0,0,1,18.163-13.925c13.549-6.879,31.175-10.668,49.633-10.668s36.085,3.789,49.634,10.668a56.74,56.74,0,0,1,18.163,13.925,34.5,34.5,0,0,1,0,45.813,56.773,56.773,0,0,1-18.163,13.926C718.9,427.333,701.275,431.122,682.817,431.122Zm-41.39-47.5c.915,1.316,3.825,4.133,10.356,6.9,8.484,3.6,19.505,5.575,31.034,5.575s22.551-1.98,31.035-5.575c6.531-2.767,9.441-5.584,10.355-6.9-.915-1.317-3.825-4.133-10.356-6.9-8.484-3.595-19.506-5.575-31.034-5.575s-22.549,1.98-31.034,5.575C645.253,379.489,642.342,382.3,641.427,383.622Z" fill="#00468e"/>
    <path id="Path_11847" data-name="Path 11847" d="M682.817,429.005c-18.134,0-35.422-3.708-48.682-10.44a54.673,54.673,0,0,1-17.5-13.394,32.379,32.379,0,0,1,0-43.1,54.7,54.7,0,0,1,17.5-13.394c13.26-6.732,30.548-10.44,48.682-10.44s35.423,3.707,48.682,10.44A54.7,54.7,0,0,1,749,362.073a32.379,32.379,0,0,1,0,43.1,54.7,54.7,0,0,1-17.5,13.394C718.24,425.3,700.951,429.005,682.817,429.005Zm0-59.975c-13.222,0-25.921,2.6-34.839,7.126-7.246,3.679-8.884,7.006-8.884,7.465s1.638,3.787,8.884,7.467c8.918,4.529,21.617,7.126,34.839,7.126s25.921-2.6,34.84-7.126c7.245-3.679,8.883-7.007,8.883-7.467s-1.638-3.786-8.883-7.465C708.738,371.627,696.039,369.03,682.817,369.03Z" fill="#0578b1"/>
    <g id="Group_3472" data-name="Group 3472">
      <path id="Path_11848" data-name="Path 11848" d="M670.278,376.153H662.56a41.327,41.327,0,0,0-.665,7.229h7.983A69.273,69.273,0,0,1,670.278,376.153Z" fill="#00468e"/>
      <path id="Path_11849" data-name="Path 11849" d="M683.056,353.906v6.343h3.476C685.512,356.424,684.274,354.17,683.056,353.906Z" fill="#00468e"/>
      <path id="Path_11850" data-name="Path 11850" d="M683.056,406.512h3.6a63.3,63.3,0,0,0,1.336-7.229h-4.937Z" fill="#00468e"/>
      <path id="Path_11851" data-name="Path 11851" d="M683.056,383.382h5.872q-.009-3.807-.2-7.229h-5.676Z" fill="#00468e"/>
      <path id="Path_11852" data-name="Path 11852" d="M683.056,398.8h5c.278-2.209.5-4.625.651-7.23h-5.648Z" fill="#00468e"/>
      <path id="Path_11853" data-name="Path 11853" d="M683.056,391.091h5.674q.185-3.418.2-7.229h-5.87Z" fill="#00468e"/>
      <path id="Path_11854" data-name="Path 11854" d="M683.056,367.958h4.936a63.5,63.5,0,0,0-1.335-7.226h-3.6Z" fill="#00468e"/>
      <path id="Path_11855" data-name="Path 11855" d="M706.91,360.249h4.953A61.232,61.232,0,0,0,694,354.727,41.937,41.937,0,0,1,706.91,360.249Z" fill="#00468e"/>
      <path id="Path_11856" data-name="Path 11856" d="M687.041,360.249h3.47c-1.77-3.327-3.925-5.535-6.274-6.174C685.293,355.1,686.247,357.246,687.041,360.249Z" fill="#00468e"/>
      <path id="Path_11857" data-name="Path 11857" d="M712.8,360.732h-5.185a33.581,33.581,0,0,1,7.723,7.226h7.422A40.059,40.059,0,0,0,712.8,360.732Z" fill="#00468e"/>
      <path id="Path_11858" data-name="Path 11858" d="M702.122,360.249h3.885a42.047,42.047,0,0,0-14.138-5.493A30.5,30.5,0,0,1,702.122,360.249Z" fill="#00468e"/>
      <path id="Path_11859" data-name="Path 11859" d="M691.013,360.249h4.724a18.4,18.4,0,0,0-10.022-6.082C687.69,355.228,689.5,357.341,691.013,360.249Z" fill="#00468e"/>
      <path id="Path_11860" data-name="Path 11860" d="M696.375,360.249h4.964a29.986,29.986,0,0,0-13.13-5.882A20.084,20.084,0,0,1,696.375,360.249Z" fill="#00468e"/>
      <path id="Path_11861" data-name="Path 11861" d="M683.056,375.67H688.7c-.149-2.605-.373-5.021-.651-7.228h-5Z" fill="#00468e"/>
      <path id="Path_11862" data-name="Path 11862" d="M715.1,368.442h-5.942a29.87,29.87,0,0,1,3.059,7.228H719A26.782,26.782,0,0,0,715.1,368.442Z" fill="#00468e"/>
      <path id="Path_11863" data-name="Path 11863" d="M729.82,383.382a19.609,19.609,0,0,0-1.5-7.229h-8.645a24.4,24.4,0,0,1,1.172,7.229Z" fill="#00468e"/>
      <path id="Path_11864" data-name="Path 11864" d="M720.963,360.732H713.8a39.686,39.686,0,0,1,9.623,7.226h9.768A50.546,50.546,0,0,0,720.963,360.732Z" fill="#00468e"/>
      <path id="Path_11865" data-name="Path 11865" d="M715.69,368.442a27.12,27.12,0,0,1,3.821,7.228h8.605a25.65,25.65,0,0,0-4.889-7.228Z" fill="#00468e"/>
      <path id="Path_11866" data-name="Path 11866" d="M712.9,360.249h6.918a93.642,93.642,0,0,0-27.178-6.2A61.772,61.772,0,0,1,712.9,360.249Z" fill="#00468e"/>
      <path id="Path_11867" data-name="Path 11867" d="M662.56,391.091h7.718a69.255,69.255,0,0,1-.4-7.229H661.9A41.332,41.332,0,0,0,662.56,391.091Z" fill="#00468e"/>
      <path id="Path_11868" data-name="Path 11868" d="M706.91,406.993A41.883,41.883,0,0,1,694,412.517a61.236,61.236,0,0,0,17.867-5.524Z" fill="#00468e"/>
      <path id="Path_11869" data-name="Path 11869" d="M683.056,413.338c1.218-.265,2.456-2.519,3.477-6.345h-3.477Z" fill="#00468e"/>
      <path id="Path_11870" data-name="Path 11870" d="M702.123,406.993a30.507,30.507,0,0,1-10.253,5.5,42.045,42.045,0,0,0,14.138-5.5Z" fill="#00468e"/>
      <path id="Path_11871" data-name="Path 11871" d="M722.763,399.283h-7.422a33.593,33.593,0,0,1-7.723,7.229H712.8A39.984,39.984,0,0,0,722.763,399.283Z" fill="#00468e"/>
      <path id="Path_11872" data-name="Path 11872" d="M719.174,376.153h-6.823a29.88,29.88,0,0,1,.939,7.229h7.078A23.963,23.963,0,0,0,719.174,376.153Z" fill="#00468e"/>
      <path id="Path_11873" data-name="Path 11873" d="M720.368,383.862H713.29a29.88,29.88,0,0,1-.939,7.229h6.823A23.963,23.963,0,0,0,720.368,383.862Z" fill="#00468e"/>
      <path id="Path_11874" data-name="Path 11874" d="M712.217,391.574a29.884,29.884,0,0,1-3.059,7.23H715.1a26.808,26.808,0,0,0,3.9-7.23Z" fill="#00468e"/>
      <path id="Path_11875" data-name="Path 11875" d="M694.823,375.67a56.935,56.935,0,0,0-1.3-7.228h-4.985c.276,2.237.5,4.661.641,7.228Z" fill="#00468e"/>
      <path id="Path_11876" data-name="Path 11876" d="M703.74,383.862h-7.983a68.741,68.741,0,0,1-.4,7.229h7.717A41.521,41.521,0,0,0,703.74,383.862Z" fill="#00468e"/>
      <path id="Path_11877" data-name="Path 11877" d="M706.774,360.732h-4.086a30.52,30.52,0,0,1,6.189,7.226h5.851A33.509,33.509,0,0,0,706.774,360.732Z" fill="#00468e"/>
      <path id="Path_11878" data-name="Path 11878" d="M702.978,375.67a37.085,37.085,0,0,0-2.173-7.228H694a57.665,57.665,0,0,1,1.3,7.228Z" fill="#00468e"/>
      <path id="Path_11879" data-name="Path 11879" d="M694.879,391.091a68.739,68.739,0,0,0,.4-7.229h-5.87c0,2.5-.07,4.921-.193,7.229Z" fill="#00468e"/>
      <path id="Path_11880" data-name="Path 11880" d="M708.6,368.442h-7.284a37.755,37.755,0,0,1,2.15,7.228h8.251A29.45,29.45,0,0,0,708.6,368.442Z" fill="#00468e"/>
      <path id="Path_11881" data-name="Path 11881" d="M703.074,376.153h-7.717a68.462,68.462,0,0,1,.4,7.229h7.983A41.515,41.515,0,0,0,703.074,376.153Z" fill="#00468e"/>
      <path id="Path_11882" data-name="Path 11882" d="M689.405,383.382h5.87a68.738,68.738,0,0,0-.4-7.229h-5.667C689.335,378.46,689.4,380.88,689.405,383.382Z" fill="#00468e"/>
      <path id="Path_11883" data-name="Path 11883" d="M702.978,391.574H695.3a57.732,57.732,0,0,1-1.3,7.23H700.8A37.152,37.152,0,0,0,702.978,391.574Z" fill="#00468e"/>
      <path id="Path_11884" data-name="Path 11884" d="M723.42,399.283a39.628,39.628,0,0,1-9.623,7.229h7.168a50.478,50.478,0,0,0,12.223-7.229Z" fill="#00468e"/>
      <path id="Path_11885" data-name="Path 11885" d="M730.3,383.862a20.017,20.017,0,0,1-1.461,7.229h11.192a16.5,16.5,0,0,0,1.841-7.229Z" fill="#00468e"/>
      <path id="Path_11886" data-name="Path 11886" d="M635.335,383.862H623.763a16.5,16.5,0,0,0,1.843,7.229H636.8A20,20,0,0,1,635.335,383.862Z" fill="#00468e"/>
      <path id="Path_11887" data-name="Path 11887" d="M635.335,383.382a20.02,20.02,0,0,1,1.464-7.229H625.606a16.488,16.488,0,0,0-1.843,7.229Z" fill="#00468e"/>
      <path id="Path_11888" data-name="Path 11888" d="M642.214,367.958a39.667,39.667,0,0,1,9.623-7.226h-7.166a50.506,50.506,0,0,0-12.224,7.226Z" fill="#00468e"/>
      <path id="Path_11889" data-name="Path 11889" d="M696.375,406.993a20.037,20.037,0,0,1-8.166,5.883,29.971,29.971,0,0,0,13.133-5.883Z" fill="#00468e"/>
      <path id="Path_11890" data-name="Path 11890" d="M708.3,399.283h-7.182a30.232,30.232,0,0,1-4.347,7.229h5.177A29.94,29.94,0,0,0,708.3,399.283Z" fill="#00468e"/>
      <path id="Path_11891" data-name="Path 11891" d="M695.739,406.993h-4.724c-1.516,2.911-3.323,5.023-5.3,6.084A18.38,18.38,0,0,0,695.739,406.993Z" fill="#00468e"/>
      <path id="Path_11892" data-name="Path 11892" d="M714.729,399.283h-5.852a30.444,30.444,0,0,1-6.188,7.229h4.085A33.4,33.4,0,0,0,714.729,399.283Z" fill="#00468e"/>
      <path id="Path_11893" data-name="Path 11893" d="M711.857,376.153h-8.294a42.319,42.319,0,0,1,.659,7.229h8.588A29.343,29.343,0,0,0,711.857,376.153Z" fill="#00468e"/>
      <path id="Path_11894" data-name="Path 11894" d="M703.467,391.574a37.8,37.8,0,0,1-2.15,7.23H708.6a29.476,29.476,0,0,0,3.116-7.23Z" fill="#00468e"/>
      <path id="Path_11895" data-name="Path 11895" d="M712.809,383.862h-8.588a42.332,42.332,0,0,1-.659,7.229h8.295A29.389,29.389,0,0,0,712.809,383.862Z" fill="#00468e"/>
      <path id="Path_11896" data-name="Path 11896" d="M696.775,360.732a30.248,30.248,0,0,1,4.347,7.226H708.3a30.031,30.031,0,0,0-6.353-7.226Z" fill="#00468e"/>
      <path id="Path_11897" data-name="Path 11897" d="M687.164,360.732a64.114,64.114,0,0,1,1.318,7.226h4.924a36.76,36.76,0,0,0-2.639-7.226Z" fill="#00468e"/>
      <path id="Path_11898" data-name="Path 11898" d="M684.237,413.171c2.349-.641,4.5-2.849,6.275-6.177h-3.471C686.247,410,685.293,412.145,684.237,413.171Z" fill="#00468e"/>
      <path id="Path_11899" data-name="Path 11899" d="M671.634,398.8a57.364,57.364,0,0,1-1.3-7.23h-7.68a37.08,37.08,0,0,0,2.175,7.23Z" fill="#00468e"/>
      <path id="Path_11900" data-name="Path 11900" d="M691.254,360.732a37.642,37.642,0,0,1,2.627,7.226H700.6a29.435,29.435,0,0,0-4.433-7.226Z" fill="#00468e"/>
      <path id="Path_11901" data-name="Path 11901" d="M693.526,398.8a57.169,57.169,0,0,0,1.3-7.229h-5.639c-.147,2.57-.366,4.993-.641,7.23Z" fill="#00468e"/>
      <path id="Path_11902" data-name="Path 11902" d="M687.164,406.512h3.6a36.651,36.651,0,0,0,2.638-7.229h-4.923A64.409,64.409,0,0,1,687.164,406.512Z" fill="#00468e"/>
      <path id="Path_11903" data-name="Path 11903" d="M691.254,406.512h4.911a29.355,29.355,0,0,0,4.433-7.229h-6.717A37.644,37.644,0,0,1,691.254,406.512Z" fill="#00468e"/>
      <path id="Path_11904" data-name="Path 11904" d="M676.228,383.862H670.36a69.286,69.286,0,0,0,.4,7.229h5.666C676.3,388.783,676.233,386.362,676.228,383.862Z" fill="#00468e"/>
      <path id="Path_11905" data-name="Path 11905" d="M682.577,376.153H676.9q-.183,3.417-.2,7.229h5.869Z" fill="#00468e"/>
      <path id="Path_11906" data-name="Path 11906" d="M682.577,383.862h-5.869q.009,3.805.2,7.229h5.674Z" fill="#00468e"/>
      <path id="Path_11907" data-name="Path 11907" d="M682.577,368.442h-5c-.279,2.205-.5,4.623-.652,7.228h5.647Z" fill="#00468e"/>
      <path id="Path_11908" data-name="Path 11908" d="M652.738,360.249a61.765,61.765,0,0,1,20.261-6.2,93.666,93.666,0,0,0-27.179,6.2Z" fill="#00468e"/>
      <path id="Path_11909" data-name="Path 11909" d="M682.577,360.732h-3.6a63.739,63.739,0,0,0-1.337,7.226h4.936Z" fill="#00468e"/>
      <path id="Path_11910" data-name="Path 11910" d="M682.577,353.906c-1.216.264-2.453,2.518-3.476,6.343h3.476Z" fill="#00468e"/>
      <path id="Path_11911" data-name="Path 11911" d="M674.62,406.993H669.9a18.382,18.382,0,0,0,10.024,6.084C677.942,412.016,676.137,409.9,674.62,406.993Z" fill="#00468e"/>
      <path id="Path_11912" data-name="Path 11912" d="M682.577,399.283h-4.936a63.3,63.3,0,0,0,1.337,7.229h3.6Z" fill="#00468e"/>
      <path id="Path_11913" data-name="Path 11913" d="M669.258,406.993h-4.963a29.971,29.971,0,0,0,13.131,5.883A20.063,20.063,0,0,1,669.258,406.993Z" fill="#00468e"/>
      <path id="Path_11914" data-name="Path 11914" d="M663.514,406.993h-3.888a42.06,42.06,0,0,0,14.141,5.5A30.5,30.5,0,0,1,663.514,406.993Z" fill="#00468e"/>
      <path id="Path_11915" data-name="Path 11915" d="M646.125,375.67a27.144,27.144,0,0,1,3.819-7.228h-7.536a25.652,25.652,0,0,0-4.89,7.228Z" fill="#00468e"/>
      <path id="Path_11916" data-name="Path 11916" d="M682.577,413.338v-6.345H679.1C680.123,410.819,681.36,413.073,682.577,413.338Z" fill="#00468e"/>
      <path id="Path_11917" data-name="Path 11917" d="M678.593,406.993h-3.471c1.771,3.329,3.924,5.537,6.276,6.177C680.343,412.145,679.387,410,678.593,406.993Z" fill="#00468e"/>
      <path id="Path_11918" data-name="Path 11918" d="M719.511,391.574a27.147,27.147,0,0,1-3.821,7.23h7.537a25.681,25.681,0,0,0,4.889-7.23Z" fill="#00468e"/>
      <path id="Path_11919" data-name="Path 11919" d="M637,375.67a25.828,25.828,0,0,1,4.766-7.228h-9.887a26.129,26.129,0,0,0-6.018,7.228Z" fill="#00468e"/>
      <path id="Path_11920" data-name="Path 11920" d="M723.87,368.442a25.9,25.9,0,0,1,4.765,7.228h11.137a26.077,26.077,0,0,0-6.017-7.228Z" fill="#00468e"/>
      <path id="Path_11921" data-name="Path 11921" d="M728.837,376.153a20.017,20.017,0,0,1,1.461,7.229H741.87a16.5,16.5,0,0,0-1.841-7.229Z" fill="#00468e"/>
      <path id="Path_11922" data-name="Path 11922" d="M728.635,391.574a25.9,25.9,0,0,1-4.765,7.23h9.887a26.108,26.108,0,0,0,6.015-7.23Z" fill="#00468e"/>
      <path id="Path_11923" data-name="Path 11923" d="M729.82,383.862h-8.972a24.408,24.408,0,0,1-1.172,7.229h8.645A19.609,19.609,0,0,0,729.82,383.862Z" fill="#00468e"/>
      <path id="Path_11924" data-name="Path 11924" d="M641.766,398.8A25.848,25.848,0,0,1,637,391.574H625.861a26.135,26.135,0,0,0,6.018,7.23Z" fill="#00468e"/>
      <path id="Path_11925" data-name="Path 11925" d="M712.9,406.993a61.759,61.759,0,0,1-20.26,6.2,93.536,93.536,0,0,0,27.178-6.2Z" fill="#00468e"/>
      <path id="Path_11926" data-name="Path 11926" d="M658.724,406.993h-4.953a61.246,61.246,0,0,0,17.87,5.524A41.914,41.914,0,0,1,658.724,406.993Z" fill="#00468e"/>
      <path id="Path_11927" data-name="Path 11927" d="M644.67,406.512h7.166a39.693,39.693,0,0,1-9.622-7.229h-9.767A50.336,50.336,0,0,0,644.67,406.512Z" fill="#00468e"/>
      <path id="Path_11928" data-name="Path 11928" d="M645.957,391.091a24.369,24.369,0,0,1-1.169-7.229h-8.972a19.631,19.631,0,0,0,1.5,7.229Z" fill="#00468e"/>
      <path id="Path_11929" data-name="Path 11929" d="M649.944,398.8a27.18,27.18,0,0,1-3.819-7.229h-8.607a25.676,25.676,0,0,0,4.89,7.23Z" fill="#00468e"/>
      <path id="Path_11930" data-name="Path 11930" d="M635.815,383.382h8.972a24.338,24.338,0,0,1,1.169-7.229h-8.645A19.61,19.61,0,0,0,635.815,383.382Z" fill="#00468e"/>
      <path id="Path_11931" data-name="Path 11931" d="M652.737,406.993h-6.918a93.551,93.551,0,0,0,27.178,6.2A61.76,61.76,0,0,1,652.737,406.993Z" fill="#00468e"/>
      <path id="Path_11932" data-name="Path 11932" d="M682.577,391.574H676.93c.151,2.6.371,5.021.652,7.23h5Z" fill="#00468e"/>
      <path id="Path_11933" data-name="Path 11933" d="M658.86,406.512h4.086a30.448,30.448,0,0,1-6.189-7.229h-5.85A33.4,33.4,0,0,0,658.86,406.512Z" fill="#00468e"/>
      <path id="Path_11934" data-name="Path 11934" d="M664.317,398.8a37.807,37.807,0,0,1-2.15-7.229h-8.25a29.389,29.389,0,0,0,3.113,7.23Z" fill="#00468e"/>
      <path id="Path_11935" data-name="Path 11935" d="M652.824,383.382h8.59a41.93,41.93,0,0,1,.66-7.229h-8.3A29.536,29.536,0,0,0,652.824,383.382Z" fill="#00468e"/>
      <path id="Path_11936" data-name="Path 11936" d="M653.777,391.091h8.3a42.023,42.023,0,0,1-.659-7.229h-8.591A29.536,29.536,0,0,0,653.777,391.091Z" fill="#00468e"/>
      <path id="Path_11937" data-name="Path 11937" d="M668.86,406.512a30.224,30.224,0,0,1-4.345-7.229H657.33a29.986,29.986,0,0,0,6.353,7.229Z" fill="#00468e"/>
      <path id="Path_11938" data-name="Path 11938" d="M674.381,406.512a37.787,37.787,0,0,1-2.628-7.229h-6.716a29.385,29.385,0,0,0,4.431,7.229Z" fill="#00468e"/>
      <path id="Path_11939" data-name="Path 11939" d="M662.167,375.67a37.755,37.755,0,0,1,2.15-7.228h-7.284a29.318,29.318,0,0,0-3.117,7.228Z" fill="#00468e"/>
      <path id="Path_11940" data-name="Path 11940" d="M674.381,360.732h-4.912a29.426,29.426,0,0,0-4.431,7.226h6.715A37.785,37.785,0,0,1,674.381,360.732Z" fill="#00468e"/>
      <path id="Path_11941" data-name="Path 11941" d="M664.83,368.442a37.153,37.153,0,0,0-2.175,7.228h7.68a57.3,57.3,0,0,1,1.3-7.228Z" fill="#00468e"/>
      <path id="Path_11942" data-name="Path 11942" d="M678.472,406.512a63.729,63.729,0,0,1-1.318-7.229h-4.925a36.852,36.852,0,0,0,2.641,7.229Z" fill="#00468e"/>
      <path id="Path_11943" data-name="Path 11943" d="M670.756,376.153a69.285,69.285,0,0,0-.4,7.229h5.868c0-2.5.071-4.922.194-7.229Z" fill="#00468e"/>
      <path id="Path_11944" data-name="Path 11944" d="M657.33,367.958h7.184a30.179,30.179,0,0,1,4.346-7.226h-5.177A30.031,30.031,0,0,0,657.33,367.958Z" fill="#00468e"/>
      <path id="Path_11945" data-name="Path 11945" d="M650.907,367.958h5.85a30.476,30.476,0,0,1,6.189-7.226h-4.082A33.442,33.442,0,0,0,650.907,367.958Z" fill="#00468e"/>
      <path id="Path_11946" data-name="Path 11946" d="M669.9,360.249h4.724c1.518-2.908,3.323-5.021,5.3-6.082A18.4,18.4,0,0,0,669.9,360.249Z" fill="#00468e"/>
      <path id="Path_11947" data-name="Path 11947" d="M653.417,375.67a29.956,29.956,0,0,1,3.06-7.228h-5.942a26.807,26.807,0,0,0-3.9,7.228Z" fill="#00468e"/>
      <path id="Path_11948" data-name="Path 11948" d="M645.267,383.382h7.078a29.883,29.883,0,0,1,.939-7.229H646.46A23.894,23.894,0,0,0,645.267,383.382Z" fill="#00468e"/>
      <path id="Path_11949" data-name="Path 11949" d="M642.871,367.958h7.424a33.556,33.556,0,0,1,7.722-7.226h-5.186A40.13,40.13,0,0,0,642.871,367.958Z" fill="#00468e"/>
      <path id="Path_11950" data-name="Path 11950" d="M646.46,391.091h6.822a29.934,29.934,0,0,1-.938-7.229h-7.077A23.9,23.9,0,0,0,646.46,391.091Z" fill="#00468e"/>
      <path id="Path_11951" data-name="Path 11951" d="M670.813,391.574a56.823,56.823,0,0,0,1.3,7.23h4.984c-.277-2.237-.495-4.66-.643-7.23Z" fill="#00468e"/>
      <path id="Path_11952" data-name="Path 11952" d="M658.726,360.249a41.94,41.94,0,0,1,12.912-5.522,61.181,61.181,0,0,0-17.865,5.522Z" fill="#00468e"/>
      <path id="Path_11953" data-name="Path 11953" d="M656.477,398.8a30,30,0,0,1-3.06-7.23h-6.784a26.808,26.808,0,0,0,3.9,7.23Z" fill="#00468e"/>
      <path id="Path_11954" data-name="Path 11954" d="M681.4,354.075c-2.352.639-4.5,2.847-6.276,6.175h3.47C679.387,357.246,680.343,355.1,681.4,354.075Z" fill="#00468e"/>
      <path id="Path_11955" data-name="Path 11955" d="M678.472,360.732h-3.6a36.825,36.825,0,0,0-2.641,7.226h4.923A63.916,63.916,0,0,1,678.472,360.732Z" fill="#00468e"/>
      <path id="Path_11956" data-name="Path 11956" d="M672.109,368.442a56.9,56.9,0,0,0-1.3,7.228h5.639c.147-2.567.366-4.991.643-7.228Z" fill="#00468e"/>
      <path id="Path_11957" data-name="Path 11957" d="M652.831,406.512h5.185a33.62,33.62,0,0,1-7.724-7.229h-7.421A39.984,39.984,0,0,0,652.831,406.512Z" fill="#00468e"/>
      <path id="Path_11958" data-name="Path 11958" d="M669.258,360.249a20.1,20.1,0,0,1,8.166-5.882,30,30,0,0,0-13.13,5.882Z" fill="#00468e"/>
      <path id="Path_11959" data-name="Path 11959" d="M663.514,360.249a30.518,30.518,0,0,1,10.253-5.493,42.041,42.041,0,0,0-14.137,5.493Z" fill="#00468e"/>
    </g>
    <path id="Path_12033" data-name="Path 12033" d="M682.577,414.426c-15.858,0-30.776-3.14-42.005-8.842-11.347-5.761-17.6-13.464-17.6-21.69s6.249-15.93,17.595-21.691c11.229-5.7,26.147-8.842,42.006-8.842s30.777,3.14,42.006,8.842c11.348,5.762,17.6,13.465,17.6,21.691s-6.249,15.929-17.6,21.69C713.354,411.286,698.436,414.426,682.577,414.426Zm0-59.974c-32.265,0-58.515,13.207-58.515,29.442s26.25,29.441,58.515,29.441,58.517-13.208,58.517-29.441S714.843,354.452,682.577,354.452Z" fill="#fff"/>
    <path id="Path_11961" data-name="Path 11961" d="M741.5,383.382H730.3a20.017,20.017,0,0,0-1.461-7.229h10.807a.242.242,0,0,0,0-.483H728.635a25.9,25.9,0,0,0-4.765-7.228h9.318a.242.242,0,0,0,0-.484H723.42a39.686,39.686,0,0,0-9.623-7.226h6.018a.242.242,0,0,0,0-.483H712.9c-8.195-4.281-18.676-6.855-30.08-6.855s-21.884,2.574-30.079,6.855h-7.654a.242.242,0,0,0,0,.483h6.752a39.693,39.693,0,0,0-9.624,7.226H631.7a.242.242,0,0,0,0,.484h10.07A25.828,25.828,0,0,0,637,375.67H625.457a.242.242,0,0,0,0,.483H636.8a20,20,0,0,0-1.465,7.229H623.762a.24.24,0,0,0,0,.48h11.572a20,20,0,0,0,1.465,7.229H625.217a.241.241,0,0,0,0,.482H637a25.867,25.867,0,0,0,4.766,7.23H631.493a.24.24,0,0,0,0,.48h10.721a39.693,39.693,0,0,0,9.622,7.229h-8.085a.241.241,0,0,0,0,.481h8.987c8.2,4.283,18.675,6.857,30.08,6.857s21.887-2.573,30.08-6.857h8.352a.241.241,0,0,0,0-.481H713.8a39.628,39.628,0,0,0,9.623-7.229h10.336a.24.24,0,0,0,0-.48h-9.887a25.921,25.921,0,0,0,4.766-7.229h11.083a.241.241,0,0,0,0-.482H728.837a20.017,20.017,0,0,0,1.461-7.229h11.2a.24.24,0,0,0,0-.48Zm-11.681,0h-8.972a24.341,24.341,0,0,0-1.172-7.229h8.645a19.59,19.59,0,0,1,1.5,7.229Zm-39.307-23.133h-3.47c-.794-3-1.748-5.15-2.8-6.174C686.586,354.714,688.741,356.922,690.511,360.249Zm-4.8-6.082a18.394,18.394,0,0,1,10.022,6.082h-4.724c-1.515-2.908-3.322-5.021-5.3-6.082Zm5.05,6.565a36.756,36.756,0,0,1,2.639,7.226h-4.922a63.913,63.913,0,0,0-1.319-7.226Zm-8.188,23.13v7.229h-5.671q-.186-3.418-.2-7.229Zm-5.87-.48q.006-3.807.2-7.229h5.673v7.229Zm6.349.48h5.873q-.009,3.805-.2,7.229h-5.676Zm0-.48v-7.229h5.674q.183,3.417.2,7.229Zm0-7.712v-7.228h5c.277,2.205.5,4.623.65,7.228Zm-.479,0H676.93c.151-2.605.373-5.021.652-7.228h5Zm-6.127,0h-5.64a56.913,56.913,0,0,1,1.3-7.228h4.985c-.274,2.237-.494,4.661-.64,7.228Zm-.029.483c-.123,2.307-.189,4.727-.194,7.229H670.36a69.285,69.285,0,0,1,.4-7.229Zm-.194,7.709c.005,2.5.071,4.921.194,7.229h-5.664a69.286,69.286,0,0,1-.4-7.229Zm.223,7.711c.146,2.57.366,4.993.643,7.23h-4.983a56.824,56.824,0,0,1-1.3-7.23Zm.479,0h5.648v7.23h-4.994c-.279-2.209-.5-4.625-.652-7.229Zm6.127,0H688.7c-.149,2.605-.373,5.021-.651,7.23h-5Zm6.126,0h5.64a57.356,57.356,0,0,1-1.3,7.23h-4.983c.276-2.237.495-4.66.642-7.229Zm.029-.482c.123-2.308.189-4.729.194-7.229h5.869a68.739,68.739,0,0,1-.4,7.229Zm.194-7.709c-.005-2.5-.071-4.922-.194-7.229h5.667a68.738,68.738,0,0,1,.4,7.229Zm-.22-7.712c-.147-2.567-.366-4.991-.641-7.228h4.984a56.935,56.935,0,0,1,1.3,7.228Zm-1.191-7.712h-4.937v-7.226h3.6a63.5,63.5,0,0,1,1.335,7.226Zm-5.415,0h-4.935a63,63,0,0,1,1.335-7.226h3.6Zm-5.425,0h-4.924a36.825,36.825,0,0,1,2.641-7.226h3.6a63.916,63.916,0,0,0-1.32,7.226Zm-2.029-7.709c1.771-3.327,3.923-5.535,6.275-6.174-1.057,1.024-2.011,3.171-2.806,6.174Zm-.5,0H669.9a18.4,18.4,0,0,1,10.024-6.082c-1.976,1.061-3.784,3.174-5.3,6.082Zm-.239.483a37.788,37.788,0,0,0-2.629,7.226h-6.715a29.422,29.422,0,0,1,4.43-7.226Zm-2.747,7.71a57.665,57.665,0,0,0-1.3,7.228h-7.681a37.153,37.153,0,0,1,2.175-7.228Zm-1.354,7.711a69.541,69.541,0,0,0-.4,7.229H661.9a41.327,41.327,0,0,1,.665-7.229Zm-.4,7.709a69.542,69.542,0,0,0,.4,7.229H662.56a41.427,41.427,0,0,1-.665-7.229Zm.456,7.711a57.554,57.554,0,0,0,1.3,7.23h-6.8a37.08,37.08,0,0,1-2.175-7.23Zm1.418,7.71a37.72,37.72,0,0,0,2.629,7.229h-4.915a29.385,29.385,0,0,1-4.431-7.229Zm2.868,7.71c1.517,2.911,3.325,5.023,5.3,6.084a18.376,18.376,0,0,1-10.023-6.084Zm.5,0h3.469c.8,3,1.749,5.152,2.806,6.177-2.354-.641-4.508-2.847-6.279-6.177Zm-.253-.481a36.727,36.727,0,0,1-2.641-7.229h4.923a63.946,63.946,0,0,0,1.318,7.229Zm2.77-7.229h4.937v7.229h-3.6a63.324,63.324,0,0,1-1.339-7.229Zm5.416,0h4.936a63.522,63.522,0,0,1-1.338,7.229h-3.6Zm5.424,0h4.924a36.654,36.654,0,0,1-2.639,7.229h-3.6a64.169,64.169,0,0,0,1.315-7.229Zm2.032,7.71c-1.771,3.329-3.926,5.537-6.276,6.177,1.056-1.026,2.01-3.173,2.8-6.177Zm.5,0h4.724a18.373,18.373,0,0,1-10.023,6.084c1.974-1.061,3.781-3.173,5.3-6.084Zm.242-.481a37.714,37.714,0,0,0,2.627-7.229H700.6a29.355,29.355,0,0,1-4.433,7.229ZM694,398.8a57.7,57.7,0,0,0,1.3-7.229h7.679a37.145,37.145,0,0,1-2.173,7.23Zm1.357-7.712a68.462,68.462,0,0,0,.4-7.229h7.983a41.428,41.428,0,0,1-.666,7.229Zm.4-7.709a68.462,68.462,0,0,0-.4-7.229h7.717a41.428,41.428,0,0,1,.666,7.229Zm-.459-7.712a57.67,57.67,0,0,0-1.3-7.228H700.8a37.085,37.085,0,0,1,2.173,7.228Zm-1.419-7.712a37.778,37.778,0,0,0-2.627-7.226h4.911a29.461,29.461,0,0,1,4.432,7.226Zm2.893-7.226h5.175a30.034,30.034,0,0,1,6.354,7.226h-7.18a30.248,30.248,0,0,0-4.347-7.226Zm-.4-.483a20.071,20.071,0,0,0-8.166-5.882,29.985,29.985,0,0,1,13.131,5.882Zm-9.843,0h-3.476v-6.343c1.22.264,2.458,2.518,3.478,6.343Zm-7.432,0c1.023-3.823,2.261-6.079,3.477-6.343v6.343Zm-9.842,0h-4.961a30,30,0,0,1,13.131-5.882,20.1,20.1,0,0,0-8.168,5.882Zm-.4.483a30.175,30.175,0,0,0-4.345,7.226H657.33a30.031,30.031,0,0,1,6.353-7.226Zm-4.541,7.71a37.755,37.755,0,0,0-2.15,7.228h-8.249a29.355,29.355,0,0,1,3.116-7.228Zm-2.243,7.711a41.929,41.929,0,0,0-.659,7.229h-8.59a29.448,29.448,0,0,1,.953-7.229Zm-.659,7.709a42.017,42.017,0,0,0,.659,7.229h-8.3a29.485,29.485,0,0,1-.952-7.229Zm.753,7.712a37.8,37.8,0,0,0,2.15,7.23h-7.284a29.393,29.393,0,0,1-3.113-7.23Zm2.347,7.71a30.191,30.191,0,0,0,4.346,7.228h-5.177a29.986,29.986,0,0,1-6.353-7.229Zm4.744,7.71a20.07,20.07,0,0,0,8.166,5.883,29.975,29.975,0,0,1-13.131-5.883Zm9.843,0h3.476v6.344c-1.216-.265-2.454-2.519-3.476-6.345Zm7.433,0c-1.021,3.826-2.259,6.08-3.477,6.345v-6.346Zm9.842,0h4.965a29.968,29.968,0,0,1-13.132,5.883,20.062,20.062,0,0,0,8.166-5.884Zm.4-.481a30.183,30.183,0,0,0,4.346-7.23H708.3a29.94,29.94,0,0,1-6.352,7.229Zm4.54-7.709a37.8,37.8,0,0,0,2.15-7.23h8.251a29.476,29.476,0,0,1-3.116,7.23Zm2.245-7.712a42.318,42.318,0,0,0,.66-7.229h8.588a29.389,29.389,0,0,1-.952,7.229Zm.66-7.709a42.327,42.327,0,0,0-.66-7.229h8.3a29.342,29.342,0,0,1,.952,7.229Zm-.754-7.712a37.755,37.755,0,0,0-2.15-7.228H708.6a29.413,29.413,0,0,1,3.118,7.228Zm5.691-7.228H715.1a26.808,26.808,0,0,1,3.9,7.228h-6.786a29.861,29.861,0,0,0-3.059-7.229Zm-.281-.483a30.5,30.5,0,0,0-6.189-7.227h4.086a33.477,33.477,0,0,1,7.955,7.227Zm-6.756-7.71a30.5,30.5,0,0,0-10.253-5.493,42.038,42.038,0,0,1,14.138,5.493Zm-38.609,0h-3.885a42.076,42.076,0,0,1,14.138-5.493,30.534,30.534,0,0,0-10.251,5.492Zm-.567.483a30.457,30.457,0,0,0-6.188,7.227h-5.85a33.45,33.45,0,0,1,7.957-7.228Zm-6.468,7.71a29.874,29.874,0,0,0-3.06,7.228h-6.784a26.781,26.781,0,0,1,3.9-7.228Zm-3.2,7.711a29.831,29.831,0,0,0-.938,7.229h-7.077a23.9,23.9,0,0,1,1.193-7.229Zm-.938,7.709a29.882,29.882,0,0,0,.938,7.229H646.46a23.9,23.9,0,0,1-1.193-7.229Zm1.073,7.711a29.921,29.921,0,0,0,3.06,7.23h-5.942a26.8,26.8,0,0,1-3.9-7.23Zm3.34,7.71a30.466,30.466,0,0,0,6.188,7.229H658.86a33.375,33.375,0,0,1-7.953-7.229Zm6.757,7.709a30.508,30.508,0,0,0,10.253,5.5,42.063,42.063,0,0,1-14.14-5.5Zm38.611,0h3.884a42.053,42.053,0,0,1-14.138,5.5,30.5,30.5,0,0,0,10.252-5.5Zm.566-.481a30.448,30.448,0,0,0,6.189-7.229h5.851a33.4,33.4,0,0,1-7.953,7.229Zm6.469-7.709a29.886,29.886,0,0,0,3.057-7.229H719a26.808,26.808,0,0,1-3.9,7.23Zm3.193-7.712a29.831,29.831,0,0,0,.938-7.229h7.079a23.964,23.964,0,0,1-1.193,7.229Zm.938-7.709a29.831,29.831,0,0,0-.938-7.229h6.821a23.964,23.964,0,0,1,1.193,7.229Zm14.826-7.712h-8.6a27.147,27.147,0,0,0-3.82-7.228h7.537a25.686,25.686,0,0,1,4.887,7.228Zm-5.354-7.712h-7.422a33.581,33.581,0,0,0-7.723-7.226H712.8A40.059,40.059,0,0,1,722.763,367.958Zm-10.9-7.709H706.91A41.937,41.937,0,0,0,694,354.727a61.232,61.232,0,0,1,17.867,5.522Zm-40.225-5.522a41.94,41.94,0,0,0-12.912,5.522h-4.952a61.215,61.215,0,0,1,17.864-5.522Zm-18.807,6.005h5.185a33.553,33.553,0,0,0-7.721,7.226h-7.424a40.112,40.112,0,0,1,9.96-7.226Zm-10.423,7.71h7.536a27.144,27.144,0,0,0-3.819,7.228h-8.607a25.652,25.652,0,0,1,4.89-7.228Zm-5.1,7.711h8.646a24.338,24.338,0,0,0-1.169,7.229h-8.972a19.609,19.609,0,0,1,1.495-7.229Zm-1.5,7.709h8.972a24.338,24.338,0,0,0,1.169,7.229h-8.645A19.63,19.63,0,0,1,635.815,383.862Zm1.7,7.711h8.608a27.158,27.158,0,0,0,3.819,7.23h-7.536a25.671,25.671,0,0,1-4.89-7.229Zm5.354,7.71h7.421a33.62,33.62,0,0,0,7.724,7.229h-5.185a39.984,39.984,0,0,1-9.96-7.229Zm10.9,7.71h4.953a41.908,41.908,0,0,0,12.916,5.524,61.249,61.249,0,0,1-17.869-5.524ZM694,412.517a41.883,41.883,0,0,0,12.914-5.524h4.953A61.236,61.236,0,0,1,694,412.517Zm18.807-6.005h-5.185a33.593,33.593,0,0,0,7.723-7.229h7.422A39.984,39.984,0,0,1,712.8,406.512Zm10.423-7.709H715.69a27.141,27.141,0,0,0,3.821-7.229h8.605a25.691,25.691,0,0,1-4.889,7.229Zm5.1-7.712h-8.644a24.4,24.4,0,0,0,1.172-7.229h8.971a19.587,19.587,0,0,1-1.5,7.229Z" fill="#fff"/>
    <g id="Group_3475" data-name="Group 3475">
      <g id="Group_3473" data-name="Group 3473">
        <path id="Path_11962" data-name="Path 11962" d="M615.706,393l-1.511.135-.257-1.389,7.264-.416.442,1.03-5.283,5.019-.831-1.139,1.139-1Zm1.434-.138.608,1.414,1.852-1.641Z" fill="#00468e"/>
        <path id="Path_11963" data-name="Path 11963" d="M626.795,401.035l-1.318.008a1.669,1.669,0,0,0-.456-1.5c-.7-.809-1.915-.307-2.721.4s-1.47,1.841-.769,2.65a1.652,1.652,0,0,0,1.42.662l-.189,1.31a2.8,2.8,0,0,1-2.248-1.083c-1.19-1.373-.5-3.4.869-4.6s3.5-1.558,4.653-.229A2.818,2.818,0,0,1,626.795,401.035Z" fill="#00468e"/>
        <path id="Path_11964" data-name="Path 11964" d="M633.087,406.051l-1.286.288a1.669,1.669,0,0,0-.764-1.372c-.858-.641-1.936.111-2.575.969s-1.047,2.113-.19,2.754a1.651,1.651,0,0,0,1.528.343l.092,1.321a2.8,2.8,0,0,1-2.425-.579c-1.454-1.088-1.207-3.216-.123-4.676s3.091-2.269,4.5-1.217A2.816,2.816,0,0,1,633.087,406.051Z" fill="#00468e"/>
        <path id="Path_11965" data-name="Path 11965" d="M634.13,413.807l-1.211-.645,3.267-6.184,1.58.842a2.463,2.463,0,0,1,1.217,3.249,2.2,2.2,0,0,1-2.076,1.14l.6,2.828-1.352.045-.593-3.235-.308-.164Zm2.134-3.142a1.079,1.079,0,0,0,1.487-.252c.273-.515.061-1.011-.627-1.377l-.37-.2-.86,1.628Z" fill="#00468e"/>
        <path id="Path_11966" data-name="Path 11966" d="M644.662,417.085l-.505,1.28-3.543-1.411,2.569-6.507,3.436,1.368-.506,1.28-2.16-.86-.463,1.171,1.837.731-.506,1.28-1.836-.731-.591,1.5Z" fill="#00468e"/>
        <path id="Path_11967" data-name="Path 11967" d="M654.036,417.687a3.363,3.363,0,0,1-4.051,2.585l-2.109-.614,1.943-6.723,2.109.615A3.336,3.336,0,0,1,654.036,417.687Zm-4.461,1.032.792.231a1.992,1.992,0,0,0,2.33-1.654,1.93,1.93,0,0,0-1.151-2.427l-.792-.231Z" fill="#00468e"/>
        <path id="Path_11968" data-name="Path 11968" d="M658.225,422.331l-1.364-.292,1.452-6.846,1.364.291Z" fill="#00468e"/>
        <path id="Path_11969" data-name="Path 11969" d="M663.52,423.292l.833-5.561-1.724-.26.2-1.36,4.8.725-.205,1.36-1.723-.26-.834,5.561Z" fill="#00468e"/>
        <path id="Path_11970" data-name="Path 11970" d="M670.809,422.933l-.6,1.4-1.34-.43,3.068-6.624,1.112.1,1.911,7.048-1.392.2-.341-1.481Zm.556-1.334,1.528.13-.565-2.413Z" fill="#00468e"/>
        <path id="Path_11971" data-name="Path 11971" d="M678.953,424.7l.131-5.622-1.742-.041.032-1.376,4.856.114-.032,1.377-1.743-.041-.131,5.621Z" fill="#00468e"/>
        <path id="Path_11972" data-name="Path 11972" d="M687.089,424.683l-1.394.04-.2-7,1.394-.04Z" fill="#00468e"/>
        <path id="Path_11973" data-name="Path 11973" d="M696.516,420.516c.162,1.837-.777,3.759-2.606,3.922s-3.089-1.564-3.251-3.4.776-3.759,2.606-3.921S696.353,418.68,696.516,420.516Zm-2.725,2.574c1.077-.1,1.438-1.287,1.335-2.45s-.666-2.271-1.743-2.175-1.438,1.286-1.335,2.449.667,2.271,1.743,2.176Z" fill="#00468e"/>
        <path id="Path_11974" data-name="Path 11974" d="M701.214,418.721l.771,4.554-1.351.231-1.172-6.9,1.352-.231,3.43,4.1-.772-4.554,1.352-.231,1.17,6.9-1.352.23Z" fill="#00468e"/>
        <path id="Path_11975" data-name="Path 11975" d="M715.375,420.286l-2.079-6.681,3.3-1.037.409,1.314-2,.625.409,1.314,1.886-.591.408,1.314-1.885.592.853,2.74Z" fill="#00468e"/>
        <path id="Path_11976" data-name="Path 11976" d="M726.212,412.506c.718,1.7.415,3.816-1.274,4.536s-3.42-.532-4.138-2.229-.414-3.816,1.276-4.537S725.495,410.809,726.212,412.506Zm-1.8,3.29c1-.424.973-1.669.519-2.743s-1.331-1.955-2.326-1.531-.973,1.67-.519,2.744,1.331,1.954,2.327,1.53Z" fill="#00468e"/>
        <path id="Path_11977" data-name="Path 11977" d="M732.394,413.154l-1.18.7-3.548-6.025,1.54-.915a2.446,2.446,0,0,1,3.4.655,2.22,2.22,0,0,1-.116,2.372l2.714.965-.669,1.184-3.057-1.181-.3.178Zm-1.556-3.468a1.089,1.089,0,0,0,.563-1.4c-.3-.5-.827-.579-1.5-.182l-.36.214.935,1.587Z" fill="#00468e"/>
        <path id="Path_11978" data-name="Path 11978" d="M740.985,403.2a2.746,2.746,0,1,1-4.11,3.577l-2.663-3.086,1.035-.9,2.33,2.7c.83.961,1.709,1.462,2.472.8s.395-1.609-.435-2.57l-2.329-2.7,1.036-.9Z" fill="#00468e"/>
        <path id="Path_11979" data-name="Path 11979" d="M743.318,397.715l3.74,3.068-.887,1.066L741,397.088l.659-1.073,5.006,1.453-3.541-3.836.659-1.072,6.562,2.5-.552,1.276-4.41-1.975,3.275,3.6L748,399.033Z" fill="#00468e"/>
      </g>
      <g id="Group_3474" data-name="Group 3474">
        <path id="Path_11980" data-name="Path 11980" d="M629.665,364.908l-1.058.912-4.544-5.308,1.057-.913Z" fill="#00468e"/>
        <path id="Path_11981" data-name="Path 11981" d="M632.7,357.09l2.3,4-1.187.689-3.491-6.059,1.188-.688,4.638,2.644-2.3-4,1.187-.689,3.491,6.059-1.187.689Z" fill="#00468e"/>
        <path id="Path_11982" data-name="Path 11982" d="M644.356,356.428l-2.051-5.234-1.622.641-.5-1.281,4.52-1.785.5,1.281-1.621.641,2.05,5.233Z" fill="#00468e"/>
        <path id="Path_11983" data-name="Path 11983" d="M654.949,351.52l.366,1.327-3.674,1.018-1.855-6.747,3.562-.987.366,1.326-2.24.621.334,1.214,1.9-.528.364,1.327-1.9.527.427,1.553Z" fill="#00468e"/>
        <path id="Path_11984" data-name="Path 11984" d="M661.454,351.515l-1.349.243-1.229-6.891,1.761-.317a2.451,2.451,0,0,1,2.955,1.8,2.219,2.219,0,0,1-.933,2.183l2.208,1.855-1.036.873-2.454-2.177-.343.061Zm-.252-3.8c.572-.1,1.12-.545,1.017-1.119s-.573-.833-1.34-.7l-.412.073.324,1.814Z" fill="#00468e"/>
        <path id="Path_11985" data-name="Path 11985" d="M670.482,345.563l.4,4.6-1.366.12-.6-6.974,1.366-.119,3.084,4.368-.4-4.6,1.366-.119.6,6.973-1.367.119Z" fill="#00468e"/>
        <path id="Path_11986" data-name="Path 11986" d="M681.47,348.324l-.476,1.447-1.372-.315,2.5-6.86h1.116l2.5,6.86-1.371.315-.465-1.447Zm.442-1.376h1.534l-.769-2.357Z" fill="#00468e"/>
        <path id="Path_11987" data-name="Path 11987" d="M690.973,349.878l.416-5.608-1.739-.13.1-1.373,4.844.362-.1,1.373-1.739-.13-.416,5.608Z" fill="#00468e"/>
        <path id="Path_11988" data-name="Path 11988" d="M700.339,350.909l-1.38-.2,1.006-6.926,1.38.2Z" fill="#00468e"/>
        <path id="Path_11989" data-name="Path 11989" d="M711.884,349.688c-.416,1.8-1.9,3.328-3.693,2.91s-2.45-2.452-2.034-4.247,1.9-3.329,3.693-2.911S712.3,347.892,711.884,349.688ZM708.5,351.28c1.052.246,1.766-.772,2.029-1.91s.071-2.366-.982-2.612-1.766.772-2.029,1.91-.071,2.367.982,2.613Z" fill="#00468e"/>
        <path id="Path_11990" data-name="Path 11990" d="M718.611,350.594l-1.564,4.345-1.289-.468,2.37-6.583,1.29.468.971,5.265,1.564-4.345,1.29.468-2.371,6.583-1.289-.468Z" fill="#00468e"/>
        <path id="Path_11991" data-name="Path 11991" d="M727.3,357.913l-1.105,1.044-1.056-.932,5.451-4.838.981.533-1.058,7.227-1.355-.378.278-1.495Zm1.041-1,1.349.736.444-2.439Z" fill="#00468e"/>
        <path id="Path_11992" data-name="Path 11992" d="M737.865,364.911,737,365.979l-2.867-2.34,4.4-5.431,1.065.868-3.534,4.363Z" fill="#00468e"/>
      </g>
    </g>
    <g id="Group_3478" data-name="Group 3478">
      <g id="Group_3476" data-name="Group 3476">
        <path id="Path_11993" data-name="Path 11993" d="M615.091,392.385l-1.511.134-.257-1.389,7.264-.415.442,1.029-5.283,5.022-.832-1.14,1.139-1Zm1.434-.139.608,1.414,1.851-1.641Z" fill="#fff"/>
        <path id="Path_11994" data-name="Path 11994" d="M626.179,400.417l-1.318.008a1.669,1.669,0,0,0-.456-1.5c-.7-.809-1.914-.307-2.72.4s-1.47,1.841-.769,2.651a1.654,1.654,0,0,0,1.42.661l-.19,1.31a2.8,2.8,0,0,1-2.248-1.083c-1.19-1.373-.5-3.4.87-4.6s3.5-1.559,4.653-.23A2.819,2.819,0,0,1,626.179,400.417Z" fill="#fff"/>
        <path id="Path_11995" data-name="Path 11995" d="M632.472,405.434l-1.287.288a1.666,1.666,0,0,0-.764-1.372c-.857-.642-1.936.11-2.574.968s-1.047,2.113-.19,2.755a1.656,1.656,0,0,0,1.528.343l.092,1.32a2.8,2.8,0,0,1-2.426-.578c-1.453-1.088-1.206-3.216-.122-4.676s3.091-2.27,4.5-1.217A2.814,2.814,0,0,1,632.472,405.434Z" fill="#fff"/>
        <path id="Path_11996" data-name="Path 11996" d="M633.515,413.191l-1.211-.646,3.267-6.184,1.581.842a2.464,2.464,0,0,1,1.216,3.25,2.2,2.2,0,0,1-2.075,1.139l.6,2.828-1.352.046-.593-3.236-.309-.164Zm2.134-3.143a1.079,1.079,0,0,0,1.487-.251c.272-.515.061-1.011-.627-1.378l-.37-.2-.86,1.628Z" fill="#fff"/>
        <path id="Path_11997" data-name="Path 11997" d="M644.047,416.467l-.506,1.28L640,416.336l2.57-6.507L646,411.2l-.506,1.28-2.16-.861-.463,1.172,1.837.73-.505,1.28-1.837-.731-.591,1.5Z" fill="#fff"/>
        <path id="Path_11998" data-name="Path 11998" d="M653.42,417.068a3.363,3.363,0,0,1-4.05,2.586l-2.109-.615,1.943-6.722,2.109.614A3.337,3.337,0,0,1,653.42,417.068Zm-4.461,1.032.793.232a1.991,1.991,0,0,0,2.329-1.655,1.928,1.928,0,0,0-1.15-2.426l-.793-.231Z" fill="#fff"/>
        <path id="Path_11999" data-name="Path 11999" d="M657.61,421.712l-1.364-.291,1.452-6.847,1.363.292Z" fill="#fff"/>
        <path id="Path_12000" data-name="Path 12000" d="M662.9,422.675l.834-5.56-1.724-.261.2-1.36,4.8.725-.2,1.361-1.724-.261-.833,5.561Z" fill="#fff"/>
        <path id="Path_12001" data-name="Path 12001" d="M670.193,422.314l-.6,1.4-1.34-.43,3.068-6.623,1.112.1,1.91,7.048-1.391.2-.341-1.481Zm.557-1.334,1.528.13-.566-2.414Z" fill="#fff"/>
        <path id="Path_12002" data-name="Path 12002" d="M678.338,424.087l.131-5.622-1.742-.041.032-1.377,4.855.115-.031,1.377-1.744-.042-.13,5.622Z" fill="#fff"/>
        <path id="Path_12003" data-name="Path 12003" d="M686.474,424.065l-1.391.04-.2-7,1.393-.04Z" fill="#fff"/>
        <path id="Path_12004" data-name="Path 12004" d="M695.9,419.9c.162,1.836-.777,3.759-2.605,3.922s-3.09-1.564-3.252-3.4.777-3.758,2.606-3.921S695.739,418.062,695.9,419.9Zm-2.724,2.574c1.077-.1,1.438-1.287,1.335-2.45s-.667-2.271-1.744-2.175-1.437,1.286-1.335,2.449.667,2.271,1.743,2.175Z" fill="#fff"/>
        <path id="Path_12005" data-name="Path 12005" d="M700.6,418.1l.772,4.554-1.352.231-1.169-6.9,1.351-.231,3.43,4.1-.772-4.555,1.352-.231,1.171,6.9-1.352.231Z" fill="#fff"/>
        <path id="Path_12006" data-name="Path 12006" d="M714.759,419.668l-2.079-6.682,3.3-1.037.409,1.315-2,.625.409,1.314,1.885-.592.409,1.315-1.885.591.852,2.74Z" fill="#fff"/>
        <path id="Path_12007" data-name="Path 12007" d="M725.6,411.887c.718,1.7.415,3.816-1.275,4.537s-3.42-.533-4.138-2.229-.415-3.816,1.275-4.537S724.879,410.191,725.6,411.887Zm-1.8,3.291c.995-.424.974-1.67.52-2.743s-1.332-1.955-2.327-1.531-.972,1.67-.519,2.743,1.332,1.955,2.326,1.529Z" fill="#fff"/>
        <path id="Path_12008" data-name="Path 12008" d="M731.777,412.536l-1.18.7-3.549-6.026,1.54-.915a2.447,2.447,0,0,1,3.4.655,2.222,2.222,0,0,1-.116,2.373l2.714.964-.667,1.182-3.058-1.18-.3.178Zm-1.556-3.468a1.086,1.086,0,0,0,.563-1.4c-.3-.5-.828-.58-1.5-.182l-.359.214.933,1.586Z" fill="#fff"/>
        <path id="Path_12009" data-name="Path 12009" d="M740.369,402.587a2.745,2.745,0,1,1-4.108,3.576l-2.665-3.085,1.037-.9,2.329,2.7c.829.96,1.709,1.462,2.473.8s.394-1.609-.436-2.57l-2.33-2.7,1.037-.9Z" fill="#fff"/>
        <path id="Path_12010" data-name="Path 12010" d="M742.7,397.1l3.74,3.068-.888,1.066-5.171-4.76.659-1.073,5.006,1.452-3.542-3.836.659-1.072,6.562,2.5-.551,1.276-4.412-1.975,3.277,3.6-.659,1.072Z" fill="#fff"/>
      </g>
      <g id="Group_3477" data-name="Group 3477">
        <path id="Path_12011" data-name="Path 12011" d="M629.05,364.289l-1.058.913-4.545-5.309,1.058-.912Z" fill="#fff"/>
        <path id="Path_12012" data-name="Path 12012" d="M632.079,356.472l2.3,4-1.187.689-3.49-6.059,1.187-.689,4.637,2.644-2.3-4,1.187-.689,3.491,6.06-1.187.689Z" fill="#fff"/>
        <path id="Path_12013" data-name="Path 12013" d="M643.74,355.808l-2.051-5.233-1.622.64-.5-1.281,4.52-1.785.5,1.282-1.622.64,2.05,5.233Z" fill="#fff"/>
        <path id="Path_12014" data-name="Path 12014" d="M654.334,350.9l.366,1.327-3.675,1.018L649.17,346.5l3.563-.987.366,1.327-2.24.621.333,1.213,1.9-.527.366,1.326-1.9.528.426,1.552Z" fill="#fff"/>
        <path id="Path_12015" data-name="Path 12015" d="M660.839,350.9l-1.35.242-1.229-6.89,1.762-.317a2.45,2.45,0,0,1,2.954,1.8,2.217,2.217,0,0,1-.932,2.182l2.208,1.856-1.037.873-2.453-2.178-.344.062Zm-.252-3.8c.572-.1,1.119-.545,1.017-1.119s-.574-.833-1.34-.7l-.412.073.324,1.814Z" fill="#fff"/>
        <path id="Path_12016" data-name="Path 12016" d="M669.867,344.945l.4,4.6-1.366.12-.6-6.974,1.367-.119,3.084,4.368-.4-4.6,1.366-.119.6,6.974-1.366.119Z" fill="#fff"/>
        <path id="Path_12017" data-name="Path 12017" d="M680.855,347.706l-.476,1.447-1.371-.315,2.5-6.86h1.116l2.5,6.86-1.371.315-.465-1.447Zm.442-1.377h1.533l-.769-2.356Z" fill="#fff"/>
        <path id="Path_12018" data-name="Path 12018" d="M690.356,349.259l.416-5.608-1.738-.13.1-1.373,4.843.363-.1,1.373-1.738-.13-.416,5.607Z" fill="#fff"/>
        <path id="Path_12019" data-name="Path 12019" d="M699.723,350.291l-1.379-.2,1.005-6.927,1.38.2Z" fill="#fff"/>
        <path id="Path_12020" data-name="Path 12020" d="M711.269,349.069c-.416,1.8-1.9,3.329-3.693,2.911s-2.45-2.452-2.035-4.248,1.9-3.328,3.693-2.91S711.684,347.274,711.269,349.069Zm-3.388,1.593c1.053.246,1.766-.772,2.029-1.91s.073-2.367-.981-2.612-1.766.772-2.029,1.91S706.829,350.416,707.881,350.662Z" fill="#fff"/>
        <path id="Path_12021" data-name="Path 12021" d="M718,349.976l-1.564,4.345-1.29-.469,2.371-6.582,1.289.468.971,5.264,1.565-4.344,1.289.468-2.37,6.583-1.29-.468Z" fill="#fff"/>
        <path id="Path_12022" data-name="Path 12022" d="M726.69,357.3l-1.1,1.044-1.057-.933,5.452-4.838.98.534-1.056,7.227-1.355-.379.278-1.494Zm1.042-1,1.348.735.444-2.439Z" fill="#fff"/>
        <path id="Path_12023" data-name="Path 12023" d="M737.249,364.292l-.864,1.07-2.866-2.341,4.4-5.431,1.064.868-3.534,4.363Z" fill="#fff"/>
      </g>
    </g>
    <g id="Group_3484" data-name="Group 3484">
      <g id="Group_3482" data-name="Group 3482">
        <g id="Group_3479" data-name="Group 3479">
          <path id="Path_12024" data-name="Path 12024" d="M650.6,400h-9.509V366.618H650.6Z" fill="#10267e"/>
          <path id="Path_12025" data-name="Path 12025" d="M651.205,400.6H640.492V366.012h10.713Zm-9.509-1.21H650V367.221H641.7Z" fill="#0578b1"/>
        </g>
        <g id="Group_3480" data-name="Group 3480">
          <path id="Path_12026" data-name="Path 12026" d="M669.781,393.933l-3.249,6.9-9.353-1.5,17.042-32.714h7.609l17.04,32.714-9.353,1.5-3.17-6.9Zm3.013-6.564h10.464l-5.231-11.239Z" fill="#10267e"/>
          <path id="Path_12027" data-name="Path 12027" d="M689.162,401.5l-3.2-6.964h-15.8l-3.28,6.962-10.624-1.707,17.6-33.783H682.2l17.6,33.783ZM658.1,398.866l8.079,1.3,3.22-6.836h17.333l3.14,6.836,8.076-1.3-16.483-31.645h-6.88Zm26.1-10.892H671.848l6.179-13.272Zm-10.464-1.209h8.572l-4.284-9.207Z" fill="#0578b1"/>
        </g>
        <g id="Group_3481" data-name="Group 3481">
          <path id="Path_12028" data-name="Path 12028" d="M704.415,400V366.618H728.03v6.565H713.766v6.564h13.473v6.566H713.766V400Z" fill="#10267e"/>
          <path id="Path_12029" data-name="Path 12029" d="M714.369,400.6H703.813V366.012h24.819v7.775H714.369v5.354h13.472v7.775H714.369Zm-9.351-1.21h8.146V385.707h13.473V380.35H713.164v-7.773h14.264v-5.356H705.017Z" fill="#0578b1"/>
        </g>
      </g>
      <g id="Group_3483" data-name="Group 3483">
        <path id="Path_12030" data-name="Path 12030" d="M650.6,400h-9.509V366.618H650.6Z" fill="#fff"/>
        <path id="Path_12031" data-name="Path 12031" d="M669.781,393.933l-3.249,6.9-9.353-1.5,17.042-32.714h7.609l17.04,32.714-9.353,1.5-3.17-6.9Zm3.013-6.564h10.464l-5.231-11.239Z" fill="#fff"/>
        <path id="Path_12032" data-name="Path 12032" d="M704.415,400V366.618H728.03v6.565H713.766v6.564h13.473v6.566H713.766V400Z" fill="#fff"/>
      </g>
    </g>
  </g>
</svg>
