<svg fill="none" height="140" viewBox="0 0 140 140" width="140" xmlns="http://www.w3.org/2000/svg" xmlns:xlink="http://www.w3.org/1999/xlink"><clipPath id="a"><path d="m0 23h92v93h-92z"/></clipPath><mask id="b" fill="#fff"><path d="m91.9839 65.4443c0-.1759 0-.3519-.0644-.5119l-10.9666-32.6852 3.3013-.9919c.8696-.256 1.3688-1.1679 1.095-2.0318-.2576-.864-1.1756-1.3599-2.0452-1.0879l-33.4633 9.9671-.5475-11.999c-.0805-1.7278-1.5299-3.1037-3.2851-3.1037-1.7553 0-3.2047 1.3759-3.2852 3.1197l-.6602 14.3028-34.31686 10.2391c-.86959.256-1.3688 1.1679-1.09504 2.0318.20934.704.85349 1.1519 1.56205 1.1519.16103 0 .32207-.016.467-.064l1.90025-.5599-10.4995819 31.2933c-.0644145.176-.0644145.352-.0644145.512h-.0161036c0 .032.0161036.064.0161036.0959 0 .032 0 .064.0161036.08.0966218 7.1354 5.9261328 12.8789 13.1244928 12.8789 7.1983 0 13.0278-5.7595 13.1244-12.8789 0-.032 0-.048.0161-.08 0-.0319.0161-.0639.0161-.0959h-.0161c0-.176 0-.352-.0644-.512l-10.9988-32.6852 26.6676-7.9513-2.4799 54.0593v.976c-4.1387 1.0719-7.3272 3.1515-8.857 5.6955h-5.9262c-.9823 0-1.8841.288-2.6571.784.3704.064.7408.176 1.1112.352.3865-.128.8052-.208 1.2722-.208h.1288c.5958-.4 1.3205-.656 2.2223-.656h38.4072c1.1916-.096 2.3994-.112 3.5105 0h.2416c-.4831-.16-.9984-.272-1.5298-.272h-5.9423c-1.5298-2.56-4.7183-4.6236-8.857-5.6955v-.832l-2.5927-56.6191 26.3134-7.8393-10.4674 31.2933c-.0644.176-.0644.352-.0644.5119h-.0161c0 .032.0161.064.0161.096s0 .064.0161.08c.0966 7.1354 5.9261 12.8789 13.1244 12.8789 7.1984 0 13.0279-5.7595 13.1245-12.8789 0-.032 0-.064.0161-.08 0-.032.0161-.064.0161-.096h-.0483zm-78.8433 29.3735c-4.28361 0-7.93913-2.7358-9.29183-6.5274h18.58353c-1.3527 3.8076-5.0082 6.5274-9.2917 6.5274zm9.7749-9.7911h-19.53374l9.77494-29.1175zm19.8074 13.0548 3.2852-71.8178 3.2851 71.8178v.192c-1.0628-.128-2.1579-.192-3.2851-.192-1.1273 0-2.2223.064-3.2852.192zm14.445 6.5275h-22.3358c2.2706-1.84 6.3288-3.264 11.1598-3.264 4.8311 0 8.9054 1.424 11.176 3.264zm21.6915-29.3735c-4.2835 0-7.939-2.7358-9.2917-6.5274h18.5835c-1.3527 3.7916-5.0082 6.5274-9.2918 6.5274zm-9.7587-9.7912 9.7748-29.1174 9.7749 29.1174z" fill="#fff"/></mask><g clip-path="url(#a)"><path d="m91.9839 65.4443c0-.1759 0-.3519-.0644-.5119l-10.9666-32.6852 3.3013-.9919c.8696-.256 1.3688-1.1679 1.095-2.0318-.2576-.864-1.1756-1.3599-2.0452-1.0879l-33.4633 9.9671-.5475-11.999c-.0805-1.7278-1.5299-3.1037-3.2851-3.1037-1.7553 0-3.2047 1.3759-3.2852 3.1197l-.6602 14.3028-34.31686 10.2391c-.86959.256-1.3688 1.1679-1.09504 2.0318.20934.704.85349 1.1519 1.56205 1.1519.16103 0 .32207-.016.467-.064l1.90025-.5599-10.4995819 31.2933c-.0644145.176-.0644145.352-.0644145.512h-.0161036c0 .032.0161036.064.0161036.0959 0 .032 0 .064.0161036.08.0966218 7.1354 5.9261328 12.8789 13.1244928 12.8789 7.1983 0 13.0278-5.7595 13.1244-12.8789 0-.032 0-.048.0161-.08 0-.0319.0161-.0639.0161-.0959h-.0161c0-.176 0-.352-.0644-.512l-10.9988-32.6852 26.6676-7.9513-2.4799 54.0593v.976c-4.1387 1.0719-7.3272 3.1515-8.857 5.6955h-5.9262c-.9823 0-1.8841.288-2.6571.784.3704.064.7408.176 1.1112.352.3865-.128.8052-.208 1.2722-.208h.1288c.5958-.4 1.3205-.656 2.2223-.656h38.4072c1.1916-.096 2.3994-.112 3.5105 0h.2416c-.4831-.16-.9984-.272-1.5298-.272h-5.9423c-1.5298-2.56-4.7183-4.6236-8.857-5.6955v-.832l-2.5927-56.6191 26.3134-7.8393-10.4674 31.2933c-.0644.176-.0644.352-.0644.5119h-.0161c0 .032.0161.064.0161.096s0 .064.0161.08c.0966 7.1354 5.9261 12.8789 13.1244 12.8789 7.1984 0 13.0279-5.7595 13.1245-12.8789 0-.032 0-.064.0161-.08 0-.032.0161-.064.0161-.096h-.0483zm-78.8433 29.3735c-4.28361 0-7.93913-2.7358-9.29183-6.5274h18.58353c-1.3527 3.8076-5.0082 6.5274-9.2917 6.5274zm9.7749-9.7911h-19.53374l9.77494-29.1175zm19.8074 13.0548 3.2852-71.8178 3.2851 71.8178v.192c-1.0628-.128-2.1579-.192-3.2851-.192-1.1273 0-2.2223.064-3.2852.192zm14.445 6.5275h-22.3358c2.2706-1.84 6.3288-3.264 11.1598-3.264 4.8311 0 8.9054 1.424 11.176 3.264zm21.6915-29.3735c-4.2835 0-7.939-2.7358-9.2917-6.5274h18.5835c-1.3527 3.7916-5.0082 6.5274-9.2918 6.5274zm-9.7587-9.7912 9.7748-29.1174 9.7749 29.1174z" fill="#0065cc"/><path d="m91.9195 64.9324-1.4221.4771.0141.042.0165.0411zm-10.9666-32.6852-.4316-1.4366-1.483.4456.4925 1.4681zm3.3013-.9919-.4236-1.439-.0081.0024zm1.095-2.0318-1.4374.4287.0036.0122.0039.0122zm-2.0452-1.0879.4282 1.4375.0098-.0029.0098-.003zm-33.4633 9.9671-1.4984.0684.0875 1.917 1.8391-.5478zm-.5475-11.999 1.4984-.0683v-.0015zm-6.5703.016-1.4984-.0692v.0001zm-.6602 14.3028.4288 1.4374 1.0205-.3045.0491-1.0637zm-34.31686 10.2391.42358 1.439.0053-.0016zm-1.09504 2.0318 1.43776-.4275-.0038-.0128-.00404-.0128zm2.02905 1.0879-.42399-1.4388-.0239.0071-.02366.0078zm1.90025-.5599 1.4221.4771.9159-2.7298-2.762.8139zm-10.4995819 31.2933 1.4086119.5156.007-.0191.00648-.0194zm-.0644145.512v1.5h1.4999964v-1.5zm-.0161036 0v-1.5h-1.5v1.5zm.0322072.1759 1.4998628-.0203-.00829-.6122-.43439-.4316zm26.2488928 0 1.4999.0204.0001-.0102v-.0102zm.0161-.08 1.3399.6744.1601-.3182v-.3562zm.0161-.0959h1.5v-1.5h-1.5zm-.0161 0h-1.5v1.5h1.5zm-.0644-.512-1.4217.4784.014.0414.0163.0404zm-10.9988-32.6852-.4286-1.4374-1.4884.4437.4954 1.4721zm26.6676-7.9513 1.4985.0687.0967-2.1096-2.0238.6034zm-2.4799 54.0593-1.4985-.0687-.0015.0344v.0343zm0 .976.3761 1.4525 1.1239-.292v-1.1605zm-8.857 5.6955v1.5h.8482l.4372-.727zm-8.5833.784-.81-1.263-3.2475 2.084 3.8022.657zm1.1112.352-.6437 1.355.5437.258.5716-.189zm1.401-.208v1.5h.4568l.3792-.255zm40.6295-.656v1.5h.0603l.0601-.005zm3.5105 0-.1504 1.492.075.008h.0754zm.2416 0v1.5l.4716-2.924zm-7.4721-.272-1.2876.769.4366.731h.851zm-8.857-5.6955h-1.5v1.1605l1.1239.292zm0-.832h1.5v-.0343l-.0015-.0343zm-2.5927-56.6191-.4282-1.4375-1.1238.3348.0536 1.1713zm26.3134-7.8393 1.4225.4758.9157-2.7376-2.7665.8242zm-10.4674 31.2933 1.4086.5156.0073-.0198.0066-.02zm-.0644.5119v1.5h1.5v-1.5zm-.0161 0v-1.5h-1.5v1.5zm.0322.176 1.4999-.0203-.0083-.6122-.4344-.4316zm26.2489 0 1.4999.0204.0001-.0102v-.0102zm.0161-.08 1.0572 1.0642.4428-.44v-.6242zm.0161-.096h1.5v-1.5h-1.5zm-.0483 0v-1.5h-1.5v1.5zm-88.13513 22.8621v-1.5h-2.12774l.71495 2.004zm18.58353 0 1.4135.5021.7113-2.0021h-2.1248zm.4832-3.2637v1.5h2.0847l-.6625-1.9767zm-19.53374 0-1.42201-.4774-.66381 1.9774h2.08582zm9.77494-29.1175 1.4222-.4767-1.4211-4.2401-1.4231 4.2394zm29.5662 42.1723-1.4984-.0685-.0016.0342v.0343zm3.2852-71.8178 1.4984-.0685h-2.9969zm3.2851 71.8178h1.5v-.0343l-.0016-.0342zm0 .192-.1793 1.4893 1.6793.2022v-1.6915zm-6.5703 0h-1.5v1.6915l1.6794-.2022zm14.445 6.3355v1.5h4.2338l-3.2895-2.665zm-22.3358 0-.9443-1.165-3.2895 2.665h4.2338zm34.7356-35.9009v-1.5h-2.1278l.715 2.004zm18.5835 0 1.4128.504.715-2.004h-2.1278zm-19.0505-3.2638-1.4221-.4773-.6638 1.9773h2.0859zm9.7748-29.1174 1.4221-.4774-1.4221-4.2359-1.422 4.2359zm9.7749 29.1174v1.5h2.0859l-.6638-1.9773zm4.8335 0c0-.118.0188-.596-.173-1.0721l-2.7829 1.1204c-.0388-.0964-.0451-.1653-.0456-.1704-.0003-.0031.0004.0031.0009.0249.0002.0106.0004.0234.0005.0399.0001.0169.0001.0346.0001.0573zm-.1423-.9891-10.9666-32.6851-2.8442.9542 10.9666 32.6852zm-11.957-30.7714 3.3012-.992-.8633-2.8731-3.3012.9919zm3.2931-.9896c1.6552-.4872 2.6356-2.2382 2.1014-3.9239l-2.8598.9063c.0083.0261.0066.0497-.0078.0764-.0153.0282-.0413.0517-.0809.0633zm2.1089-3.8994c-.495-1.6599-2.2572-2.6141-3.9303-2.0909l.8955 2.8633c.0661-.0207.1397.017.16.085zm-3.9107-2.0968-33.4634 9.9671.8564 2.8752 33.4633-9.9672zm-31.5367 11.3363-.5476-11.9989-2.9968.1367.5475 11.999zm-.5476-12.0004c-.1184-2.5403-2.2391-4.5339-4.7835-4.5339v3c.9661 0 1.7441.7582 1.7867 1.6736zm-4.7835-4.5339c-2.5491 0-4.6657 1.9983-4.7836 4.5505l2.9968.1384c.0432-.9354.8252-1.6889 1.7868-1.6889zm-4.7836 4.5506-.6602 14.3027 2.9968.1384.6602-14.3028zm.4093 12.9345-34.31683 10.2391.85775 2.8748 34.31678-10.2391zm-34.31153 10.2376c-1.65519.4872-2.63554 2.2382-2.1014 3.9239l2.85985-.9063c-.00829-.0261-.00662-.0497.00783-.0764.01526-.0282.04123-.0517.08087-.0633zm-2.10924 3.8983c.40803 1.372 1.66137 2.2243 2.99982 2.2243v-3c-.03777 0-.06778-.0118-.08765-.0262-.01704-.0124-.02901-.0276-.03664-.0532zm2.99982 2.2243c.24708 0 .58423-.0227.93856-.14l-.94311-2.8479c.0187-.0062.03299-.0097.04182-.0117.00882-.0019.01331-.0024.01275-.0023-.00056 0-.00496.0006-.01372.0011-.00873.0005-.02071.0008-.0363.0008zm.89099-.1251 1.90026-.56-.848-2.8776-1.90024.5599zm.05415-2.4759-10.49956 31.2933 2.84418.9542 10.49959-31.2933zm-10.48608 31.2548c-.16885.4613-.15581.8968-.15581 1.0276h3c0-.0208.00001-.0364.0001-.0515.00009-.0146.00025-.0259.00047-.0351.00046-.0188.00109-.025.00095-.0236-.00036.0039-.00481.0491-.02849.1138zm1.3441936-.4724h-.0161036v3h.0161036zm-1.5161036 1.5c0 .1313.01635.2376.02853.3021.00626.0331.01244.0605.01664.0782.00392.0167.00768.0315.00822.0337.00147.0058-.00027-.001-.00231-.0097-.00231-.0097-.00673-.0291-.01147-.0542-.00916-.0485-.02351-.1388-.02351-.2542h3c0-.1313-.01635-.2376-.02853-.3021-.00625-.0331-.01244-.0605-.01663-.0782-.00393-.0167-.00769-.0315-.00823-.0337-.00147-.0058.00027.001.00231.0097.00231.0098.00674.0291.01148.0542.00916.0485.0235.1388.0235.2542zm.0161.0959c0 .0034-.00013.0362.00105.0725.0012.0371.0044.1047.01624.1871.01757.1222.08555.5308.44163.8846l2.11437-2.1283c.33998.3378.3999.7224.41345.8166.01625.113.01326.2115.01326.1675zm.01624.1003c.10781 7.9616 6.61127 14.3586 14.62436 14.3586v-3c-6.38363 0-11.5392-5.09-11.62463-11.3992zm14.62436 14.3586c8.0142 0 14.5165-6.4142 14.6243-14.3585l-2.9997-.0407c-.0855 6.2944-5.2423 11.3992-11.6246 11.3992zm14.6244-14.3789c0-.0457.0039.0738-.0186.2082-.0289.1718-.0843.3045-.1254.3862l-2.6798-1.3487c-.0572.1137-.1206.2703-.1535.4662-.0147.0875-.0195.1606-.0213.2086-.0016.0412-.0014.079-.0014.0795zm.0161-.08c0 .1154-.0143.2057-.0235.2542-.0047.0252-.0092.0445-.0115.0543-.002.0086-.0037.0154-.0023.0096.0006-.0022.0043-.017.0082-.0336.0042-.0178.0104-.0451.0167-.0783.0122-.0645.0285-.1708.0285-.3021h-3c0-.1154.0144-.2057.0235-.2542.0048-.0252.0092-.0445.0115-.0543.002-.0086.0038-.0154.0023-.0096-.0005.0022-.0043.017-.0082.0336-.0042.0178-.0104.0451-.0166.0783-.0122.0645-.0286.1708-.0286.3021zm-1.4839-1.5959h-.0161v3h.0161zm1.4839 1.5c0-.1181.0188-.596-.1729-1.0722l-2.7829 1.1204c-.0389-.0963-.0452-.1652-.0457-.1704-.0003-.0031.0004.0031.0009.0249.0003.0106.0004.0234.0005.0399.0001.0169.0001.0346.0001.0574zm-.1427-.9904-10.9988-32.6852-2.8433.9568 10.9987 32.6852zm-11.9919-30.7693 26.6676-7.9513-.8572-2.875-26.6676 7.9514zm24.7406-9.4575-2.48 54.0593 2.9969.1375 2.48-54.0594zm-2.4815 54.128v.976h3v-.976zm1.1239-.4761c-4.3646 1.1304-7.9645 3.3786-9.7664 6.3746l2.5709 1.546c1.2578-2.091 4.035-4.003 7.9477-5.016zm-8.4809 5.6476h-5.9262v3h5.9262zm-5.9262 0c-1.2845 0-2.4654.379-3.4671 1.021l1.6201 2.525c.5443-.349 1.167-.546 1.847-.546zm-2.9124 3.762c.2436.042.4825.115.7228.229l1.2874-2.71c-.5005-.238-1.0024-.389-1.4995-.475zm1.8381.298c.2517-.084.5112-.132.8006-.132v-3c-.6446 0-1.2225.111-1.7438.284zm.8006-.132h.1288v-3h-.1288zm.9648-.255c.3565-.239.7916-.401 1.3863-.401v-3c-1.2089 0-2.2231.35-3.0583.91zm1.3863-.401h38.4072v-3h-38.4072zm38.5276-.005c1.1303-.091 2.2434-.103 3.2397-.003l.3009-2.984c-1.226-.124-2.5285-.104-3.7815-.003zm3.3901.005h.2416v-3h-.2416zm.7132-2.924c-.5819-.193-1.2619-.348-2.0014-.348v3c.3232 0 .6739.069 1.0582.196zm-2.0014-.348h-5.9423v3h5.9423zm-4.6547.73c-1.8036-3.017-5.4082-5.2483-9.7685-6.3776l-.7522 2.9046c3.917 1.014 6.6894 2.911 7.9455 5.012zm-8.6446-4.9255v-.832h-3v.832zm-.0015-.9006-2.5927-56.6191-2.9969.1372 2.5927 56.6191zm-3.6629-55.1129 26.3133-7.8394-.8565-2.8751-26.3133 7.8394zm24.4625-9.7527-10.4673 31.2933 2.845.9516 10.4674-31.2933zm-10.4534 31.2535c-.1689.4613-.1558.8968-.1558 1.0275h3c0-.0207 0-.0363.0001-.0515.0001-.0145.0002-.0258.0005-.035.0004-.0189.001-.025.0009-.0236-.0003.0039-.0048.0491-.0285.1138zm1.3442-.4725h-.0161v3h.0161zm-1.5161 1.5c0 .1314.0163.2376.0285.3022.0063.0331.0125.0604.0167.0782.0039.0166.0076.0315.0082.0336.0014.0059-.0003-.001-.0023-.0096-.0023-.0098-.0068-.0291-.0115-.0542-.0092-.0486-.0235-.1388-.0235-.2542h3c0-.1313-.0164-.2376-.0285-.3021-.0063-.0331-.0125-.0604-.0167-.0782-.0039-.0167-.0076-.0315-.0082-.0337-.0015-.0058.0003.001.0023.0097.0023.0098.0068.0291.0115.0542.0092.0485.0235.1388.0235.2541zm.0161.096c0 .0034-.0001.0362.001.0725.0012.0371.0044.1048.0163.1871.0176.1221.0855.5308.4416.8846l2.1144-2.1283c.34.3378.3999.7224.4134.8166.0163.113.0133.2114.0133.1675zm.0162.1003c.1078 7.9616 6.6113 14.3586 14.6243 14.3586v-3c-6.3835 0-11.5391-5.09-11.6245-11.3992zm14.6243 14.3586c8.0143 0 14.5166-6.4142 14.6244-14.3585l-2.9998-.0407c-.0854 6.2944-5.2422 11.3992-11.6246 11.3992zm14.6245-14.3789c0-.0439.003.0545-.0132.1675-.0136.0941-.0735.4788-.4135.8167l-2.1144-2.1283c-.3561.3538-.4241.7625-.4416.8847-.0118.0823-.015.1499-.0163.187-.0011.0364-.001.0691-.001.0724zm.0161-.08c0 .1154-.0143.2056-.0235.2542-.0047.0251-.0091.0444-.0115.0542-.002.0086-.0037.0155-.0023.0096.0006-.0021.0043-.017.0083-.0336.0041-.0178.0103-.0451.0166-.0782.0122-.0646.0285-.1708.0285-.3022h-3c0-.1153.0143-.2056.0235-.2541.0047-.0251.0092-.0444.0115-.0542.002-.0087.0038-.0155.0023-.0097-.0006.0022-.0043.017-.0082.0337-.0042.0178-.0104.0451-.0167.0782-.0121.0645-.0285.1708-.0285.3021zm-1.4839-1.596h-.0483v3h.0483zm-1.5483 1.5v.016h3v-.016zm-77.3433 27.8895c-3.63254 0-6.73366-2.3209-7.87905-5.5314l-2.82557 1.008c1.56002 4.3728 5.76995 7.5234 10.70462 7.5234zm-9.29183-3.5274h18.58353v-3h-18.58353zm17.17013-2.0022c-1.1447 3.2222-4.243 5.5296-7.8783 5.5296v3c4.9317 0 9.1445-3.1321 10.7052-7.5253zm1.8966-4.2615h-19.53374v3h19.53374zm-18.11173 1.9773 9.77493-29.1175-2.844-.9547-9.77495 29.1175zm6.93063-29.1182 9.7588 29.1175 2.8445-.9533-9.7588-29.1175zm32.4869 41.7643 3.2852-71.8178-2.9969-.1371-3.2851 71.8178zm.2883-71.8178 3.2852 71.8178 2.9968-.1371-3.2851-71.8178zm3.2836 71.7492v.192h3v-.192zm1.6793-1.2972c-1.1254-.1356-2.2804-.2028-3.4644-.2028v3c1.0704 0 2.1055.0608 3.1058.1813zm-3.4644-.2028c-1.1841 0-2.3391.0672-3.4645.2028l.3587 2.9785c1.0002-.1205 2.0353-.1813 3.1058-.1813zm-1.7852 1.692v-.192h-3v.192zm12.945 4.8355h-22.3358v3h22.3358zm-21.3914 2.665c1.9388-1.571 5.6346-2.929 10.2154-2.929v-2.9997c-5.0812 0-9.5017 1.4897-12.1041 3.5987zm10.2154-2.929c4.5823 0 8.2937 1.359 10.2316 2.929l1.8887-2.33c-2.6033-2.11-7.0404-3.5987-12.1203-3.5987zm32.8675-29.1095c-3.6325 0-6.7336-2.3209-7.879-5.5315l-2.8255 1.0081c1.56 4.3728 5.7699 7.5234 10.7045 7.5234zm-9.2917-3.5274h18.5835v-3h-18.5835zm17.1708-2.0041c-1.1454 3.2106-4.2466 5.5315-7.8791 5.5315v3c4.9347 0 9.1446-3.1506 10.7046-7.5234zm-16.2158-2.2823 9.7749-29.1175-2.8441-.9547-9.7749 29.1175zm6.9308-29.1175 9.7749 29.1175 2.8441-.9547-9.7749-29.1175zm11.1969 27.1401h-19.5497v3h19.5497z" fill="#0065cc" mask="url(#b)"/><path d="m19.7108 114.4h52.5784v-4.895s-.2416-4.896-4.9278-4.896h-5.9422-30.8384-6.9568s-3.9132 1.024-3.9132 4.896z" stroke="#ae8af8" stroke-miterlimit="10" stroke-width="3"/></g></svg>