<svg fill="none" height="140" viewBox="0 0 140 140" width="140" xmlns="http://www.w3.org/2000/svg"><g stroke-miterlimit="10"><path d="m49.4162 106.461c-4.8945-5.757-26.8698-32.3738-26.8698-45.7906 0-14.9687 12.0377-27.1172 26.8698-27.1172s26.8532 12.1485 26.8532 27.1172c0 3.3876-1.4551 7.9767-4.3157 13.617l2.2819 1.1849c3.059-6.0076 4.5967-10.9804 4.5967-14.7852 0-16.4038-13.1785-29.6871-29.4161-29.6871s-29.4162 13.2666-29.4162 29.6704c0 15.9867 27.2997 47.2926 28.4571 48.6276.463.534 1.2732.584 1.8024.117.033-.034.0827-.067.1157-.117.0331-.034 3.3897-3.872 7.722-9.4453l-2.0173-1.602c-2.9102 3.7543-5.374 6.6913-6.6637 8.2103z" fill="#0065cc" stroke="#0065cc"/><path d="m49.4161 40.0112c-10.5991 0-19.1809 8.6775-19.1809 19.3576 0 10.68 8.5818 19.3742 19.1809 19.3742s19.1809-8.6775 19.1809-19.3576c0-10.6967-8.5984-19.3575-19.1809-19.3742zm0 36.1452c-9.1771 0-16.6344-7.5094-16.6344-16.7876 0-9.2783 7.4408-16.7877 16.6344-16.7877s16.6344 7.5094 16.6344 16.7877c-.0165 9.2782-7.4573 16.7876-16.6344 16.7876z" fill="#0065cc" stroke="#0065cc"/><g fill="#ae8af8" stroke="#ae8af8" stroke-width=".5"><path d="m69.8868 76.1565c-7.7716 0-14.0715 6.3579-14.0715 14.2011 0 7.8431 6.2999 14.2014 14.0715 14.2014s14.0715-6.3583 14.0715-14.2014c-.0166-7.8432-6.3165-14.1844-14.0715-14.2011zm0 25.8155c-6.3661 0-11.5085-5.2064-11.5085-11.6144s5.1424-11.6145 11.5085-11.6145 11.5085 5.2065 11.5085 11.6145c-.0165 6.408-5.159 11.6144-11.5085 11.6144z"/><path d="m75.3765 82.9983-5.4897 5.5402-5.5062-5.5402-1.8024 1.8189 5.4897 5.5403-5.4897 5.5402 1.8024 1.8357 5.5062-5.5403 5.4897 5.5403 1.8024-1.8357-5.4897-5.5402 5.4897-5.5403z"/></g></g></svg>