<svg fill="none" height="140" viewBox="0 0 140 140" width="140" xmlns="http://www.w3.org/2000/svg"><path d="m114.188 90.7267h-.979v-5.3794c0-.2159-.037-.4498-.127-.6477l-3.299-8.4019-4.35-19.8805c-.181-.8276-.924-1.4213-1.776-1.4213h-22.3845v-19.1968c0-.9895-.8156-1.7991-1.8125-1.7991h-77.6475c-.996875 0-1.8125.8096-1.8125 1.7991v56.7267c0 .9896.815625 1.7992 1.8125 1.7992h6.48875v4.5158c0 .9895.81562 1.7992 1.81245 1.7992h7.0869c-.2537.864-.3987 1.745-.3987 2.663 0 5.343 4.3862 9.697 9.7693 9.697 5.3832 0 9.7694-4.354 9.7694-9.697 0-.9-.145-1.799-.3987-2.663h50.0793c-.2537.864-.3987 1.745-.3987 2.663 0 5.343 4.3863 9.697 9.7694 9.697s9.7691-4.354 9.7691-9.697c0-.9-.145-1.799-.399-2.663h7.957c.852 0 1.577-.594 1.777-1.4034l1.413-6.3149c.127-.5398-.018-1.0975-.362-1.5113s-.816-.6837-1.359-.6837zm-32.9155-32.1325h20.9345l3.607 16.4261h-14.0471v-9.2476c0-.9895-.8156-1.7991-1.8125-1.7991s-1.8125.8096-1.8125 1.7991v11.0467c0 .9895.8156 1.7991 1.8125 1.7991h16.8566l2.773 7.0706v5.0376h-28.3115zm6.815 38.3395c-.0363.036-.0725.072-.1087.108h-53.9582c-.0362-.036-.0725-.072-.1087-.108-.3444-.3778-.6888-.7376-1.0513-1.0435-.7794-.6656-1.6675-1.1874-2.61-1.5652h49.1913 12.2706c-.9425.3778-1.8125.8996-2.5737 1.5652-.3444.3059-.7069.6657-1.0513 1.0435zm-84.4625-59.3354h74.0225v53.1284h-67.5338-6.4887zm8.3012 56.7267h10.9657c-.4169.1619-.7975.3778-1.1782.5937-.4893.2879-.9606.5937-1.3956.9535-.3806.3059-.725.6657-1.0694 1.0615-.0362.036-.0724.072-.1087.108h-7.2138zm14.645 15.077c-3.3893 0-6.1443-2.735-6.1443-6.099 0-1.224.3806-2.411 1.0693-3.4187.3444-.5038.725-.8996 1.1419-1.2414 2.1931-1.8531 5.6732-1.8711 7.9025.018.3988.3238.7613.7376 1.1056 1.2234.7069 1.0257 1.0875 2.2127 1.0875 3.4367 0 3.346-2.755 6.081-6.1625 6.081zm68.8569 0c-3.3893 0-6.1444-2.735-6.1444-6.099 0-1.224.3807-2.411 1.0694-3.4187.3444-.4858.725-.8996 1.1419-1.2414 2.1931-1.8531 5.6731-1.8711 7.8844.018.3987.3238.7796.7376 1.1236 1.2234.707 1.0257 1.088 2.2127 1.088 3.4367-.019 3.346-2.7735 6.081-6.1629 6.081zm15.8959-12.3603h-8.447c-.036-.036-.072-.072-.108-.108-.345-.3778-.689-.7376-1.052-1.0435-.779-.6656-1.667-1.1874-2.6095-1.5652h12.2885.526z" fill="#0065cc"/><g fill="#ae8af8"><path d="m26.5712 106.685c1.8819 0 3.4075-1.514 3.4075-3.382s-1.5256-3.3827-3.4075-3.3827-3.4075 1.5147-3.4075 3.3827 1.5256 3.382 3.4075 3.382z"/><path d="m95.4281 106.685c1.882 0 3.4075-1.514 3.4075-3.382s-1.5255-3.3827-3.4075-3.3827c-1.8819 0-3.4075 1.5147-3.4075 3.3827s1.5256 3.382 3.4075 3.382z"/><path d="m40.6544 85.887c11.9081 0 21.8043-9.5534 21.8587-21.6076 0-.0359.0181-.0719.0181-.1079s-.0181-.072-.0181-.1259c-.0725-11.9643-9.8962-21.6077-21.8587-21.6077-12.1075 0-21.895 9.7873-21.895 21.7336-.0182 11.9822 9.8056 21.7155 21.895 21.7155zm-18.1975-23.5326c.3625-3.6523 1.8306-6.9807 4.06-9.6794l.8518.8456c.7069.7017 1.8488.7017 2.5557 0 .7068-.7016.7068-1.8351 0-2.5368l-.8519-.8456c2.7187-2.2129 6.0719-3.6522 9.7512-4.012v1.2054c0 .9895.8157 1.7991 1.8125 1.7991.9969 0 1.8125-.8096 1.8125-1.7991v-1.2054c3.6794.3598 7.0325 1.8171 9.7332 4.03l-.8338.8276c-.7069.7017-.7069 1.8352 0 2.5368.7069.7017 1.8488.7017 2.5556 0l.8338-.8276c2.2112 2.6807 3.6794 6.0271 4.0419 9.6614h-1.1963c-.9969 0-1.8125.8096-1.8125 1.7991s.8156 1.7991 1.8125 1.7991h1.1963c-.3625 3.6523-1.8125 6.9807-4.0419 9.6614-.1813-.108-1.7944-2.4468-3.4075-.8456-.7069.7017-.7069 1.8351 0 2.5368l.8519.8456c-2.7007 2.2129-6.0719 3.6522-9.7513 4.012v-1.2054c0-.9895-.8156-1.7991-1.8125-1.7991s-1.8125.8096-1.8125 1.7991v1.2054c-3.6794-.3598-7.0325-1.7991-9.7512-4.012l.8518-.8456c.7069-.7017.7069-1.8351 0-2.5368-.7068-.7017-1.8487-.7017-2.5556 0l-.8519.8456c-2.2293-2.6987-3.6975-6.0271-4.06-9.6794h1.2325c.9969 0 1.8125-.8096 1.8125-1.7991.0182-2.2489-2.8093-1.7272-3.0268-1.7811z"/><path d="m34.5462 73.3111 7.4132-7.9342c.3081-.3418.4893-.7736.4893-1.2234v-10.7768c0-.9895-.8156-1.7991-1.8125-1.7991-.9968 0-1.8125.8096-1.8125 1.7991v10.0752l-6.9418 7.4124c-.6888.7196-.6344 1.8711.0906 2.5368.7431.6836 1.9031.6477 2.5737-.09z"/></g></svg>