<svg fill="none" height="140" viewBox="0 0 140 140" width="140" xmlns="http://www.w3.org/2000/svg" xmlns:xlink="http://www.w3.org/1999/xlink"><clipPath id="a"><path d="m0 22h95v95h-95z"/></clipPath><g clip-path="url(#a)"><path d="m94.05 55.4083-9.5-4.75c-.1583-.1583-.3167-.1583-.6333-.1583h-7.9167c0-.95-.6333-1.5833-1.5833-1.5833h-3.6417c-9.3417 0-16.9417 7.6-16.9417 16.9416v13.1417c0 .95.6334 1.5833 1.5834 1.5833h1.5833v4.75c0 5.5417-4.1167 10.1334-9.5 10.925v-72.675c0-.95-.6333-1.5833-1.5833-1.5833h-41.1667c-.95 0-1.58333.6333-1.58333 1.5833v41.9584 41.9583h-1.58334c-.949997 0-1.58333.633-1.58333 1.583v6.334c0 .95.633333 1.583 1.58333 1.583h47.49997c.95 0 1.5834-.633 1.5834-1.583v-6.334c0-.95-.6334-1.583-1.5834-1.583h-1.5833v-8.075c7.125-.7917 12.6667-6.8083 12.6667-14.0917v-4.75h14.25c.95 0 1.5833-.6333 1.5833-1.5833v-19h7.6l9.1833 4.5917c.1584.1583.3167.1583.6334.1583.3166 0 .6333 0 .7916-.1583.475-.3167.7917-.7917.7917-1.425v-6.3334c0-.6333-.3167-1.1083-.95-1.425zm-46.55 58.4247h-44.33333v-3.166h1.58333 41.1667 1.5833zm-41.16667-6.333v-82.3333h37.99997v82.3333zm50.66667-41.6417c0-7.6 6.175-13.775 13.775-13.775h2.0583v6.3334 3.1666h-7.9166c-.475 0-.95.3167-1.2667.6334l-3.1667 4.75c-.1583.3166-.3166.6333-.3166.95v9.5h-3.1667zm9.6583 7.4417 2.0584 4.1167h-5.3834v-9.025l2.375-3.6417h.7917v7.9167c0 .3166 0 .475.1583.6333zm5.5417 4.1167-2.5333-5.0667v-7.6h3.1666v12.6667zm19.6333-16.7834-7.2833-3.6416c-.1583-.1584-.3167-.1584-.6333-.1584h-7.9167v-3.1666h7.6l8.2333 4.1166z" fill="#0065cc"/><path d="m85.6583 73.4583c-.95 1.7417-9.5 17.2584-5.3833 24.3834.95 1.5833 2.85 3.3253 6.8083 3.3253 3.9584 0 5.8584-1.742 6.8084-3.3253 4.1166-6.9667-4.4334-22.6417-5.3834-24.3834-.6333-.95-2.2166-.95-2.85 0zm5.5417 22.8c-.3167.475-1.1083 1.7417-4.1167 1.7417-3.0083 0-3.8-1.2667-4.1166-1.7417-2.0584-3.6416.95-12.35 4.1166-18.525 3.0084 6.175 6.175 14.8834 4.1167 18.525z" fill="#ae8af8"/><path d="m39.5833 28.3333h-28.5c-.95 0-1.5833.6334-1.5833 1.5834v19c0 .95.6333 1.5833 1.5833 1.5833h28.5c.95 0 1.5834-.6333 1.5834-1.5833v-19c0-.95-.6334-1.5834-1.5834-1.5834zm-1.5833 19h-25.3333v-15.8333h25.3333z" fill="#ae8af8"/><path d="m39.5833 53.6667h-28.5v3.1666h28.5z" fill="#0065cc"/><path d="m31.6666 75.8334h-9.8166l6.3333-10.2917-2.6917-1.7417-7.9166 12.6667c-.3167.475-.3167 1.1083 0 1.5833.3166.475.7916.7917 1.425.7917h9.8166l-6.3333 10.2917 2.6917 1.7416 7.9166-12.6666c.3167-.475.3167-1.1084 0-1.5834-.3166-.475-.7916-.7916-1.425-.7916z" fill="#ae8af8"/></g></svg>