<svg fill="none" height="140" viewBox="0 0 140 140" width="140" xmlns="http://www.w3.org/2000/svg"><g stroke-miterlimit="10"><path d="m33.0639 32c-.5968 0-1.0639.4671-1.0639 1.0639v73.2771c0 .597.4671 1.064 1.0639 1.064h73.2771c.597 0 1.064-.467 1.064-1.064v-73.2771c0-.5968-.467-1.0639-1.064-1.0639zm1.0638 2.1277h27.1937v18.4751c0 .5968.467 1.0639 1.0638 1.0639h14.6607c.5968 0 1.0639-.4671 1.0639-1.0639v-18.4751h27.1932v71.1753h-71.1753c0-.026 0-71.1753 0-71.1753zm29.2955 0h12.5329v17.4372h-12.5329c0-.026 0-17.4372 0-17.4372z" fill="#0065cc" stroke="#0065cc" stroke-width="3"/><path d="m58.523 66c-.3114 0-.5969.1038-.8563.3633l-8.3034 8.3034c-.2336.2076-.3633.5189-.3633.8563 0 .3113.1297.6227.3633.8562l8.3034 8.3034c.2335.2336.5449.3374.8563.3374.3113 0 .5968-.1038.8562-.3374.4931-.493.4931-1.2195 0-1.6866l-6.2535-6.2535h27.5569c3.8923 0 7.1098 3.1916 7.1098 7.1098s-3.1916 7.1098-7.1098 7.1098h-5.5788c-.6747 0-1.1936.5189-1.1936 1.1936 0 .6746.5189 1.1936 1.1936 1.1936h5.5269c5.2416 0 9.4971-4.2555 9.4971-9.497s-4.2555-9.497-9.4971-9.497h-27.5309l6.2535-6.2535c.493-.493.493-1.2196 0-1.6866-.2335-.2855-.5449-.4152-.8303-.4152z" fill="#ae8af8" stroke="#ae8af8" stroke-width="1.5"/></g></svg>