<svg fill="none" height="75" viewBox="0 0 75 75" width="75" xmlns="http://www.w3.org/2000/svg"><g fill="#fff"><path d="m72.6591 61.3582h-66.69827c-.5716 0-1.03505.3272-1.03505.7315 0 .4044.46345.7316 1.03505.7316h66.69827c.5716 0 1.0351-.3272 1.0351-.7316 0-.4043-.4635-.7315-1.0351-.7315z"/><path clip-rule="evenodd" d="m3.05318 16h41.03522c.5808 0 1.0516.4749 1.0516 1.0619v2.6713h11.6821c2.5203 0 4.6556 1.7393 5.2844 4.0629l2.5588 9.308c.0304.1086.0758.21.1336.3025.0599.093.1332.1777.2181.2503l3.7306 2.0117c.343.1846.5577.5444.5577.9375v13.6561c0 .5869-.4709 1.0619-1.0517 1.0619h-7.344c-.503 3.1935-3.2411 5.6443-6.5425 5.6443s-6.0395-2.4508-6.5426-5.6443l-27.0849.0103c-.5073 3.1886-3.2431 5.634-6.5409 5.634s-6.0337-2.4454-6.54097-5.634h-4.60609c-.58076 0-1.05164-.4749-1.05164-1.0618.00142-23.1249.00154-33.0894.00154-33.2107 0-.587.47088-1.0619 1.05164-1.0619zm39.98372 17.4217h-38.93189v5.9607h38.93189zm0-2.1243h-38.93189v-5.0926h38.93189zm0-7.2163v-5.9575h-38.93189v5.9575zm-38.9335 17.4309h38.9422v7.6986h-22.3053c-.5057-3.1897-3.2424-5.6371-6.5415-5.6371-3.2992 0-6.03581 2.4474-6.54154 5.6371h-3.55386zm5.56575 8.7585c0 2.5219 2.03195 4.5742 4.52955 4.5742 2.4977 0 4.5296-2.0523 4.5296-4.5742 0-2.522-2.0319-4.5732-4.5296-4.5732-2.4976 0-4.52955 2.0512-4.52955 4.5732zm44.69795 4.5742c-2.4977 0-4.5296-2.0523-4.5296-4.5742l.0002-.0012c0-.0025.0014-.0046.0014-.0071l-.0003-.0012-.0002-.0012c.0059-2.517 2.0344-4.5625 4.5285-4.5625 2.4929 0 4.5203 2.0437 4.5282 4.5591 0 .0011-.0003.002-.0006.0029s-.0006.0019-.0006.0029c0 .004.0022.0073.0022.0113-.0016 2.5206-2.0326 4.5712-4.5292 4.5712zm-2.2721-20.8787h10.6408c-.0147-.038-.0269-.077-.039-.1161-.0049-.0156-.0097-.0311-.0148-.0466-.0057-.0174-.0126-.0341-.0196-.0508-.0021-.0052-.0043-.0105-.0064-.0157-.0015-.0038-.003-.0075-.0045-.0113-.0045-.0115-.0087-.0233-.0123-.0354l-2.5608-9.3308c-.3978-1.4701-1.7358-2.5002-3.2535-2.5002h-4.7299zm-6.9461-12.1089h4.8428v13.1709c0 .5869.4709 1.0619 1.0517 1.0619h14.0208l2.1379 1.1541v1.2434h-4.8335c-.5808 0-1.0517.4749-1.0517 1.0619v4.5876c0 .5869.4709 1.0619 1.0517 1.0619h4.8335v4.0017h-6.2949c-.5099-3.1845-3.2444-5.6267-6.5399-5.6267-3.2956 0-6.0301 2.4422-6.54 5.6267h-2.6784zm22.0511 21.2177v-2.4639h-3.7799v2.4639z" fill-rule="evenodd"/><path d="m53.2102 48.1892c-.8063 0-1.4631.6564-1.4631 1.4631 0 .8069.6568 1.4632 1.4631 1.4632s1.4632-.6563 1.4632-1.4632c0-.8067-.6569-1.4631-1.4632-1.4631z"/><path d="m13.7053 48.1892c-.8063 0-1.4631.6564-1.4631 1.4631 0 .8069.6568 1.4632 1.4631 1.4632s1.4632-.6563 1.4632-1.4632c0-.8067-.6569-1.4631-1.4632-1.4631z"/></g></svg>