<svg fill="none" height="140" viewBox="0 0 140 140" width="140" xmlns="http://www.w3.org/2000/svg"><path d="m115.155 101.948c-.342-.431-.863-.665-1.403-.665h-.971v-5.3784c0-.2158-.036-.4496-.126-.6475l-3.273-8.3998-4.317-19.8755c-.179-.8273-.917-1.4209-1.762-1.4209h-22.2109v-19.2099c0-.9893-.8093-1.7987-1.7984-1.7987h-27.822c-.054.5036-.1259 1.0073-.3058 1.4749-.3057.8094-.6294 1.4749-1.097 2.1225h27.4263v53.1153h-73.44865v-53.1153h26.67105c-1.1331-.8454-1.6906-2.2124-1.7086-3.5974h-26.7609c-.98915 0-1.798454.8094-1.798454 1.7987v56.712c0 .99.809304 1.799 1.798454 1.799h6.43845v4.515c0 .989.8093 1.798 1.79845 1.798h7.0319c-.2517.864-.3956 1.745-.3956 2.662 0 5.343 4.3522 9.695 9.6936 9.695s9.6937-4.352 9.6937-9.695c0-.899-.1439-1.798-.3957-2.662h49.6912c-.2518.864-.3957 1.745-.3957 2.662 0 5.343 4.3523 9.695 9.6937 9.695 5.3409 0 9.6939-4.352 9.6939-9.695 0-.899-.144-1.798-.396-2.662h7.895c.846 0 1.565-.593 1.763-1.403l1.403-6.313c.161-.54.035-1.097-.306-1.511zm-34.0629-32.8077h20.7719l3.579 16.4219h-13.9378v-9.2452c0-.9893-.8093-1.7987-1.7985-1.7987-.9891 0-1.7984.8094-1.7984 1.7987v11.0439c0 .9893.8093 1.7987 1.7984 1.7987h16.7253l2.752 7.0688v5.0366h-28.0919zm-61.5609 38.3477c-.036.036-.0719.072-.1079.108h-7.1399v-2.716h10.8807c-.4137.162-.7914.378-1.169.594-.4856.287-.9532.593-1.3848.953-.3777.306-.7374.665-1.0791 1.061zm7.2837 12.465c-3.3631 0-6.0967-2.734-6.0967-6.098 0-1.223.3776-2.41 1.0611-3.417.3417-.504.7193-.899 1.133-1.241 2.1761-1.853 5.6291-1.871 7.8412.018.3957.324.7554.737 1.0971 1.223.7014 1.025 1.079 2.212 1.079 3.435 0 3.328-2.7336 6.08-6.1147 6.08zm61.0394-12.483c-.036.036-.0719.072-.1079.108h-53.5399c-.0359-.036-.0719-.072-.1079-.108-.3417-.378-.6834-.737-1.0431-1.043-.7733-.666-1.6545-1.187-2.5897-1.565h61.0034c-.9352.378-1.7985.899-2.5538 1.565-.3597.306-.7194.665-1.0611 1.043zm7.2837 12.483c-3.3631 0-6.0967-2.734-6.0967-6.098 0-1.223.3777-2.41 1.0611-3.417.3417-.486.7193-.899 1.133-1.241 2.1761-1.853 5.6291-1.871 7.8232.018.3957.324.7734.737 1.1154 1.223.701 1.025 1.079 2.212 1.079 3.435-.018 3.328-2.7519 6.08-6.115 6.08zm15.772-12.357h-8.38c-.036-.036-.072-.072-.108-.108-.342-.378-.684-.737-1.043-1.043-.774-.666-1.6549-1.187-2.5901-1.565h12.7151z" fill="#0065cc" stroke="#0065cc" stroke-miterlimit="10" stroke-width=".5"/><g fill="#ae8af8"><path d="m26.707 117.075c1.8673 0 3.3811-1.514 3.3811-3.381 0-1.868-1.5138-3.382-3.3811-3.382s-3.3811 1.514-3.3811 3.382c0 1.867 1.5138 3.381 3.3811 3.381z"/><path d="m95.282 117.309c1.8673 0 3.381-1.514 3.381-3.382 0-1.867-1.5137-3.381-3.381-3.381-1.8674 0-3.3811 1.514-3.3811 3.381 0 1.868 1.5137 3.382 3.3811 3.382z"/><g stroke="#ae8af8" stroke-miterlimit="10" stroke-width=".5"><path d="m40.2313 15.4497c-9.8015 0-17.7687 7.9501-17.7687 17.7529 0 4.5687 1.7445 8.9575 4.8918 12.249l11.8878 12.4829c.2518.2698.6115.4137.9711.4137.3597 0 .7194-.1439.9712-.4137.4676-.5036 11.654-12.1951 12.1755-12.7886 6.6003-7.2667 6.0428-18.5084-1.2229-25.1096-3.2372-2.9498-7.4816-4.5866-11.9058-4.5866zm11.1684 27.9155c-.3777.4137-6.996 7.3746-11.1684 11.7274-2.7876-2.9319-10.6468-11.1878-10.9345-11.4756-5.7371-6.0436-5.4853-15.5946.5575-21.3323 6.0428-5.7378 15.6105-5.486 21.3476.5575 5.4313 5.7198 5.5392 14.6593.2338 20.505h-.036z"/><path d="m40.2314 23.166c-5.5572 0-10.0534 4.4967-10.0534 10.0546s4.4962 10.0546 10.0534 10.0546 10.0533-4.4967 10.0533-10.0546-4.4961-10.0546-10.0533-10.0546zm0 17.4292c-4.0645 0-7.3737-3.3096-7.3737-7.3746s3.3092-7.3746 7.3737-7.3746 7.3736 3.3096 7.3736 7.3746-3.2911 7.3746-7.3736 7.3746z"/></g></g></svg>